<svg version="1.1" id="Layer_1" xmlns="http://www.w3.org/2000/svg" xmlns:xlink="http://www.w3.org/1999/xlink" x="0px" y="0px" width="310.31px" height="80.849px" viewBox="0 0 310.31 80.849" xml:space="preserve">
<g>
	<g>
		<circle fill="none" stroke="#0027F1" stroke-miterlimit="10" cx="40.423" cy="40.425" r="39.923"></circle>
		<circle fill="#F7D917" stroke="#0027F1" stroke-miterlimit="10" cx="40.464" cy="40.32" r="26.267"></circle>
		<g>
			<polygon fill="#0027F1" points="51.925,35.751 45.053,29.05 57.008,23.664"></polygon>
			<polygon fill="#0027F1" points="45.384,29.327 35.785,29.449 40.432,17.187"></polygon>
			<polygon fill="#0027F1" points="35.953,28.958 29.266,35.845 23.854,23.901"></polygon>
			<polygon fill="#0027F1" points="29.182,35.238 29.355,44.836 17.069,40.259"></polygon>
			<polygon fill="#0027F1" points="29.018,44.607 35.908,51.29 23.968,56.708"></polygon>
			<polygon fill="#0027F1" points="35.413,51.424 45.011,51.305 40.363,63.565"></polygon>
			<polygon fill="#0027F1" points="44.926,51.452 51.79,44.74 56.888,56.82"></polygon>
			<polygon fill="#0027F1" points="51.5,45.113 51.547,35.513 63.725,40.374"></polygon>
			<circle fill="#0027F1" cx="40.621" cy="40.254" r="12.253"></circle>
		</g>
		<g>
			
				<rect x="31.725" y="31.766" transform="matrix(0.9116 0.4112 -0.4112 0.9116 20.1366 -12.9927)" fill="#F7D917" width="17.094" height="17.096"></rect>
			
				<rect x="31.857" y="31.874" transform="matrix(0.3538 0.9353 -0.9353 0.3538 63.9166 -11.6701)" fill="#F7D917" width="17.093" height="17.094"></rect>
		</g>
		<polygon fill="#0027F1" points="33.562,46.635 31.102,39.882 34.148,33.404 40.917,30.993 47.442,34.062 49.902,40.813 
			46.855,47.29 40.086,49.701"></polygon>
		<g>
			<path fill="#0027F1" d="M8.235,43.541l-0.006-0.199c0.739-0.132,1.272-0.328,1.604-0.584c0.329-0.256,0.488-0.544,0.479-0.861
				c-0.009-0.31-0.131-0.525-0.367-0.651c-0.235-0.123-0.48-0.181-0.735-0.174c-0.298,0.009-0.539,0.084-0.722,0.227
				c-0.12,0.095-0.275,0.281-0.464,0.562l-0.307,0.451c-0.304,0.448-0.609,0.769-0.914,0.957c-0.304,0.19-0.686,0.29-1.143,0.306
				c-0.484,0.014-0.94-0.093-1.368-0.319c-0.427-0.228-0.648-0.587-0.663-1.082c-0.008-0.252,0.041-0.495,0.144-0.733
				c0.104-0.236,0.153-0.374,0.153-0.407c-0.003-0.075-0.036-0.126-0.1-0.155c-0.063-0.025-0.146-0.047-0.251-0.062l-0.006-0.208
				l2.162-0.062l0.006,0.194c-0.499,0.104-0.924,0.276-1.28,0.515c-0.355,0.241-0.528,0.524-0.518,0.85
				c0.006,0.231,0.104,0.41,0.29,0.539c0.188,0.127,0.411,0.188,0.673,0.181c0.312-0.01,0.545-0.079,0.698-0.209
				c0.153-0.128,0.379-0.411,0.673-0.849l0.354-0.523c0.159-0.233,0.337-0.421,0.532-0.562c0.367-0.265,0.819-0.406,1.355-0.422
				c0.5-0.014,0.977,0.108,1.428,0.367c0.452,0.26,0.688,0.689,0.705,1.29c0.005,0.139-0.01,0.278-0.044,0.421
				c-0.032,0.144-0.085,0.284-0.16,0.425l-0.068,0.136c-0.011,0.03-0.022,0.061-0.028,0.09c-0.007,0.03-0.01,0.055-0.01,0.074
				c0.001,0.072,0.033,0.118,0.094,0.144c0.06,0.026,0.145,0.046,0.257,0.063l0.005,0.2L8.235,43.541z"></path>
			<path fill="#0027F1" d="M10.415,40.286l-0.251-0.025c0.009-0.199-0.016-0.344-0.076-0.434c-0.09-0.138-0.277-0.221-0.561-0.247
				l-4.789-0.458c-0.288-0.027-0.487,0.02-0.599,0.144c-0.068,0.072-0.12,0.206-0.155,0.405l-0.25-0.025l0.381-3.986l1.993,0.191
				l-0.015,0.168c-0.646,0.027-1.096,0.134-1.351,0.323c-0.254,0.188-0.41,0.561-0.463,1.116c-0.02,0.212-0.001,0.35,0.057,0.413
				c0.056,0.063,0.18,0.104,0.365,0.122l2.289,0.22c0.043-0.395-0.033-0.673-0.231-0.831c-0.198-0.159-0.572-0.305-1.125-0.433
				l0.016-0.175l3.342,0.32l-0.018,0.175c-0.567-0.004-0.975,0.06-1.219,0.189c-0.245,0.13-0.385,0.392-0.423,0.787l2.394,0.229
				c0.21,0.02,0.357-0.004,0.438-0.072c0.083-0.068,0.135-0.22,0.157-0.454c0.043-0.442-0.044-0.814-0.262-1.117
				c-0.218-0.301-0.654-0.594-1.306-0.875l0.019-0.191l2.029,0.477L10.415,40.286z"></path>
			<path fill="#0027F1" d="M10.442,36.207c0.064-0.256,0.044-0.441-0.062-0.55c-0.105-0.111-0.284-0.2-0.538-0.266l-4.56-1.216
				c-0.26-0.069-0.443-0.072-0.548-0.006c-0.105,0.066-0.201,0.206-0.285,0.422l-0.244-0.064l0.452-1.693l4.793-0.136l0.016-0.057
				l-4.092-2.498l0.453-1.693l0.243,0.064c-0.036,0.234-0.019,0.405,0.056,0.513c0.072,0.109,0.293,0.212,0.664,0.311l4.245,1.132
				c0.353,0.095,0.596,0.114,0.727,0.06c0.131-0.054,0.233-0.193,0.306-0.417l0.245,0.066l-0.595,2.231l-0.243-0.066
				c0.042-0.2,0.036-0.364-0.023-0.487c-0.06-0.124-0.234-0.224-0.524-0.301l-4.691-1.25l-0.013,0.05l5.203,3.15l-0.047,0.18
				l-5.972,0.188l-0.009,0.029l4.339,1.157c0.32,0.086,0.565,0.106,0.735,0.063c0.17-0.044,0.301-0.206,0.393-0.486l0.244,0.064
				l-0.418,1.57L10.442,36.207z"></path>
			<path fill="#0027F1" d="M12.038,30.417c0.069-0.175,0.092-0.312,0.07-0.411c-0.036-0.169-0.189-0.312-0.452-0.435l-4.378-1.993
				c-0.262-0.119-0.467-0.141-0.611-0.065c-0.087,0.046-0.18,0.155-0.277,0.333l-0.23-0.104l0.891-1.957
				c0.17-0.376,0.375-0.661,0.612-0.854c0.447-0.364,0.976-0.405,1.592-0.125c0.374,0.169,0.626,0.399,0.758,0.689
				c0.132,0.292,0.177,0.56,0.136,0.809l0.084,0.039c0.171-0.206,0.373-0.359,0.605-0.463c0.454-0.201,0.948-0.18,1.483,0.064
				c0.5,0.229,0.832,0.574,0.995,1.039c0.163,0.464,0.122,0.966-0.123,1.503l-0.927,2.036L12.038,30.417z M9.697,26.511
				c-0.121-0.219-0.414-0.431-0.879-0.643c-0.344-0.157-0.653-0.246-0.929-0.265c-0.276-0.02-0.469,0.096-0.583,0.345
				c-0.06,0.132-0.071,0.237-0.03,0.318c0.04,0.081,0.143,0.16,0.308,0.233l2.029,0.925C9.791,27.033,9.819,26.728,9.697,26.511z
				 M12.518,28.685c0.152,0.008,0.262-0.061,0.328-0.207c0.137-0.298,0.116-0.562-0.062-0.788c-0.178-0.226-0.481-0.437-0.911-0.633
				c-0.641-0.292-1.129-0.353-1.461-0.184c-0.203,0.101-0.378,0.327-0.525,0.673l2.259,1.03
				C12.306,28.648,12.429,28.684,12.518,28.685z"></path>
			<path fill="#0027F1" d="M13.71,26.661c0.077-0.149,0.058-0.321-0.057-0.515c-0.069-0.124-0.253-0.353-0.548-0.688l-3.74-4.236
				l0.105-0.163l5.229,1.513c0.586,0.171,0.974,0.265,1.162,0.283c0.19,0.021,0.325-0.04,0.406-0.175l0.212,0.136l-1.216,1.894
				l-0.214-0.136c0.113-0.198,0.17-0.338,0.173-0.42c0.002-0.083-0.067-0.171-0.212-0.264c-0.064-0.041-0.174-0.09-0.326-0.145
				c-0.091-0.032-0.202-0.067-0.335-0.107l-0.602-0.175l-0.844,1.312c0.277,0.3,0.458,0.494,0.542,0.584
				c0.183,0.189,0.323,0.315,0.42,0.377c0.119,0.078,0.243,0.078,0.369,0c0.073-0.048,0.153-0.138,0.242-0.27l0.212,0.137
				l-0.767,1.193L13.71,26.661z M13.361,23.336l-2.296-0.679l-0.032,0.049l1.595,1.77L13.361,23.336z"></path>
			<path fill="#0027F1" d="M12.111,17.635l0.181,0.162c-0.095,0.14-0.145,0.248-0.152,0.325c-0.008,0.077,0.05,0.169,0.171,0.278
				c0.031,0.027,0.069,0.056,0.117,0.089c0.047,0.033,0.097,0.064,0.152,0.095l3.166,1.671l0.009-0.01l-1.647-2.525
				c-0.009-0.015-0.142-0.089-0.396-0.223c-0.256-0.134-0.416-0.212-0.483-0.234c-0.122-0.039-0.221-0.05-0.299-0.037
				c-0.077,0.014-0.176,0.077-0.297,0.187l-0.181-0.16l1.442-1.624l0.182,0.159c-0.116,0.165-0.182,0.286-0.197,0.36
				c-0.015,0.076,0.029,0.159,0.13,0.25c0.024,0.021,0.077,0.055,0.155,0.106c0.078,0.052,0.19,0.115,0.335,0.196l2.922,1.53
				l-0.019,0.021l-1.94-2.738c-0.034-0.048-0.074-0.1-0.116-0.149c-0.044-0.05-0.096-0.104-0.156-0.158
				c-0.139-0.123-0.263-0.167-0.374-0.135c-0.067,0.018-0.162,0.084-0.281,0.2l-0.182-0.161l0.846-0.953l0.182,0.162
				c-0.055,0.094-0.081,0.183-0.078,0.261c0.008,0.144,0.084,0.319,0.231,0.522l3.559,5.025l-0.122,0.138l-4.26-2.223l-0.032,0.034
				l2.64,4.048l-0.13,0.145l-5.459-2.885c-0.236-0.123-0.4-0.186-0.495-0.185c-0.094,0-0.195,0.042-0.303,0.125l-0.181-0.162
				L12.111,17.635z"></path>
			<path fill="#0027F1" d="M19.31,19.246c0.119-0.12,0.154-0.288,0.105-0.507c-0.029-0.14-0.135-0.415-0.314-0.823l-2.267-5.177
				l0.15-0.121l4.515,3.036c0.508,0.341,0.849,0.548,1.023,0.625c0.175,0.077,0.319,0.063,0.438-0.044l0.16,0.196l-1.735,1.432
				l-0.161-0.195c0.167-0.155,0.264-0.27,0.292-0.348c0.029-0.078-0.013-0.182-0.121-0.315c-0.05-0.06-0.139-0.138-0.268-0.237
				c-0.076-0.058-0.172-0.127-0.286-0.205l-0.52-0.351l-1.204,0.994c0.172,0.369,0.285,0.608,0.338,0.719
				c0.116,0.236,0.211,0.4,0.285,0.49c0.091,0.109,0.207,0.147,0.352,0.113c0.084-0.025,0.188-0.084,0.312-0.183l0.16,0.194
				l-1.094,0.903L19.31,19.246z M19.994,15.973l-1.979-1.348l-0.045,0.038l0.98,2.172L19.994,15.973z"></path>
			<path fill="#0027F1" d="M22.744,16.383c0.214-0.143,0.322-0.289,0.318-0.439c-0.004-0.149-0.071-0.336-0.202-0.553l-2.425-4.03
				c-0.358-0.181-0.573-0.284-0.648-0.311c-0.073-0.026-0.15-0.023-0.233,0.008l-0.129-0.216l1.261-0.76l4.188,2.323l0.029-0.019
				l-1.505-2.498c-0.172-0.288-0.333-0.472-0.481-0.552c-0.146-0.079-0.338-0.064-0.573,0.043l-0.13-0.216l1.28-0.769l0.13,0.214
				c-0.16,0.157-0.249,0.292-0.267,0.404c-0.018,0.112,0.05,0.297,0.206,0.557l3.018,5.013l-0.166,0.102l-5.358-2.973l-0.039,0.024
				l2.007,3.336c0.157,0.262,0.294,0.432,0.41,0.51c0.185,0.126,0.404,0.124,0.658-0.01l0.131,0.216l-1.35,0.812L22.744,16.383z"></path>
			<path fill="#0027F1" d="M25.201,8.608c0.165-0.818,0.579-1.361,1.244-1.634c0.265-0.108,0.56-0.145,0.882-0.112
				c0.322,0.035,0.515,0.039,0.581,0.013c0.069-0.028,0.11-0.085,0.124-0.171s0.006-0.205-0.024-0.357l0.18-0.073l0.877,2.151
				L28.9,8.49c-0.346-0.402-0.654-0.707-0.925-0.909c-0.506-0.374-0.948-0.484-1.33-0.327c-0.415,0.169-0.613,0.551-0.593,1.143
				c0.02,0.593,0.221,1.357,0.602,2.29c0.314,0.765,0.681,1.413,1.104,1.939c0.422,0.529,0.886,0.688,1.394,0.481
				c0.273-0.113,0.425-0.27,0.452-0.474c0.017-0.114-0.013-0.267-0.091-0.454l-0.396-0.971c-0.115-0.277-0.248-0.435-0.402-0.474
				c-0.101-0.022-0.27,0.013-0.509,0.103l-0.095-0.233l2.207-0.9l0.094,0.233c-0.216,0.102-0.338,0.226-0.364,0.37
				c-0.024,0.144,0.027,0.376,0.157,0.693l0.479,1.171c-0.091,0.184-0.271,0.404-0.538,0.66c-0.267,0.256-0.598,0.464-0.992,0.625
				c-0.715,0.292-1.416,0.204-2.105-0.265c-0.645-0.439-1.152-1.111-1.522-2.019C25.152,10.257,25.044,9.402,25.201,8.608z"></path>
			<path fill="#0027F1" d="M32.335,11.841c0.22-0.068,0.357-0.166,0.41-0.293c0.054-0.128,0.046-0.366-0.023-0.71l-0.878-4.306
				c-0.074-0.366-0.16-0.588-0.257-0.669c-0.098-0.081-0.261-0.116-0.489-0.105l-0.05-0.247l2.192-0.445
				c0.581-0.12,1.049-0.075,1.408,0.133c0.356,0.207,0.602,0.641,0.736,1.295c0.065,0.32,0.067,0.633,0.006,0.938
				C35.327,7.735,35.177,8,34.939,8.228c-0.182,0.162-0.373,0.277-0.574,0.344s-0.504,0.143-0.91,0.226l0.369,1.815
				c0.073,0.357,0.163,0.583,0.27,0.677c0.107,0.094,0.277,0.124,0.51,0.089l0.05,0.247l-2.267,0.463L32.335,11.841z M34.158,8.095
				c0.175-0.24,0.197-0.686,0.064-1.334c-0.092-0.443-0.217-0.791-0.376-1.042c-0.16-0.252-0.387-0.347-0.681-0.287
				c-0.136,0.027-0.228,0.07-0.278,0.128c-0.048,0.058-0.061,0.153-0.034,0.286l0.533,2.613C33.791,8.368,34.047,8.246,34.158,8.095
				z"></path>
			<path fill="#0027F1" d="M35.968,11.053c0.234-0.033,0.39-0.106,0.469-0.22c0.08-0.116,0.107-0.356,0.084-0.725L36.24,5.723
				c-0.024-0.381-0.091-0.626-0.2-0.736c-0.073-0.072-0.23-0.115-0.468-0.128l-0.016-0.251l2.231-0.144
				c0.463-0.03,0.843,0.017,1.138,0.137c0.575,0.246,0.884,0.733,0.931,1.461c0.034,0.54-0.083,0.972-0.355,1.301
				c-0.208,0.246-0.434,0.41-0.677,0.49l1.654,2.726c0.043,0.076,0.087,0.124,0.132,0.147c0.043,0.021,0.099,0.031,0.163,0.035
				l0.015,0.236l-1.449,0.093l-1.816-2.995H37.52l0.125,1.942c0.023,0.348,0.078,0.58,0.166,0.695
				c0.09,0.116,0.256,0.172,0.501,0.17l0.015,0.251l-2.343,0.149L35.968,11.053z M38.458,7.441c0.185-0.186,0.256-0.591,0.216-1.218
				c-0.024-0.383-0.081-0.684-0.171-0.901c-0.152-0.37-0.399-0.544-0.741-0.522c-0.184,0.011-0.305,0.054-0.357,0.123
				c-0.054,0.07-0.075,0.18-0.066,0.332L37.5,7.776C37.955,7.738,38.273,7.626,38.458,7.441z"></path>
			<path fill="#0027F1" d="M40.476,10.812c0.196,0.003,0.339-0.023,0.429-0.081c0.145-0.096,0.225-0.291,0.238-0.585l0.234-4.806
				c0.014-0.29-0.043-0.49-0.173-0.595c-0.077-0.066-0.221-0.11-0.428-0.133l0.013-0.252l2.427,0.118l-0.013,0.253
				c-0.216,0.001-0.369,0.031-0.453,0.083c-0.14,0.094-0.218,0.287-0.231,0.583l-0.234,4.804c-0.014,0.279,0.032,0.466,0.135,0.564
				c0.104,0.099,0.265,0.154,0.481,0.165l-0.012,0.251l-2.427-0.117L40.476,10.812z"></path>
			<path fill="#0027F1" d="M42.653,10.766c0.26,0.046,0.443,0.013,0.545-0.103c0.101-0.113,0.175-0.3,0.224-0.558l0.867-4.637
				c0.049-0.266,0.037-0.448-0.037-0.549c-0.073-0.1-0.221-0.185-0.443-0.25l0.045-0.25l1.722,0.322l0.501,4.77l0.058,0.011
				l2.18-4.269l1.724,0.321l-0.048,0.247c-0.236-0.017-0.405,0.014-0.507,0.095c-0.102,0.081-0.189,0.309-0.259,0.685l-0.806,4.319
				c-0.067,0.358-0.07,0.602-0.005,0.728c0.063,0.129,0.209,0.22,0.44,0.274l-0.047,0.248l-2.269-0.423l0.045-0.248
				c0.204,0.029,0.366,0.009,0.485-0.059c0.119-0.069,0.206-0.251,0.261-0.545l0.891-4.772l-0.051-0.009l-2.747,5.425l-0.183-0.034
				l-0.641-5.94l-0.03-0.006l-0.824,4.414c-0.061,0.326-0.063,0.571-0.006,0.737c0.057,0.167,0.229,0.284,0.513,0.353l-0.045,0.248
				l-1.598-0.298L42.653,10.766z"></path>
			<path fill="#0027F1" d="M48.555,11.905c0.163,0.043,0.326-0.013,0.492-0.164c0.105-0.095,0.291-0.323,0.554-0.683L52.942,6.5
				l0.182,0.067l-0.362,5.431c-0.041,0.608-0.05,1.008-0.029,1.197c0.022,0.189,0.108,0.309,0.259,0.358l-0.088,0.235l-2.11-0.783
				l0.088-0.238c0.217,0.067,0.366,0.093,0.447,0.08c0.083-0.016,0.152-0.102,0.212-0.264c0.027-0.073,0.052-0.189,0.073-0.351
				c0.011-0.096,0.021-0.213,0.032-0.351l0.044-0.624l-1.465-0.544c-0.233,0.333-0.384,0.551-0.452,0.654
				c-0.146,0.217-0.239,0.382-0.281,0.49c-0.05,0.134-0.022,0.255,0.08,0.361c0.062,0.062,0.167,0.121,0.313,0.179l-0.086,0.238
				l-1.332-0.495L48.555,11.905z M51.73,10.856l0.174-2.388l-0.055-0.021l-1.39,1.937L51.73,10.856z"></path>
			<path fill="#0027F1" d="M52.749,13.438c0.213,0.099,0.385,0.122,0.513,0.067c0.127-0.054,0.281-0.242,0.46-0.565l2.127-3.843
				c0.184-0.336,0.26-0.579,0.229-0.729c-0.023-0.102-0.131-0.221-0.325-0.361l0.123-0.222l1.958,1.083
				c0.405,0.225,0.701,0.468,0.885,0.728c0.351,0.515,0.35,1.094-0.005,1.732c-0.26,0.473-0.594,0.774-0.999,0.905
				c-0.308,0.095-0.587,0.111-0.835,0.046l-0.077,3.189c-0.002,0.087,0.008,0.151,0.034,0.193c0.026,0.042,0.063,0.081,0.117,0.117
				l-0.116,0.21l-1.27-0.703l0.084-3.501l-0.003-0.001l-0.941,1.701c-0.169,0.305-0.247,0.531-0.235,0.677
				c0.014,0.145,0.123,0.284,0.331,0.413l-0.122,0.221l-2.055-1.138L52.749,13.438z M56.79,11.736
				c0.255-0.057,0.535-0.359,0.837-0.908c0.186-0.336,0.302-0.621,0.343-0.853c0.07-0.394-0.044-0.672-0.343-0.838
				c-0.163-0.09-0.284-0.12-0.367-0.089c-0.083,0.029-0.16,0.112-0.234,0.244l-1.222,2.211
				C56.207,11.715,56.536,11.792,56.79,11.736z"></path>
			<path fill="#0027F1" d="M62.227,11.704l-0.152,0.201c-0.203-0.13-0.341-0.201-0.416-0.216c-0.073-0.015-0.142,0.018-0.204,0.1
				c-0.028,0.038-0.051,0.08-0.073,0.13c-0.022,0.049-0.058,0.144-0.105,0.283l-0.707,2.457l0.008,0.004l1.648-0.941
				c0.103-0.058,0.221-0.131,0.355-0.225c0.206-0.14,0.343-0.256,0.411-0.346c0.105-0.141,0.135-0.262,0.095-0.366
				c-0.029-0.071-0.126-0.183-0.292-0.336l0.152-0.202l1.219,0.922l-0.152,0.202c-0.105-0.044-0.197-0.071-0.273-0.08
				c-0.104-0.001-0.216,0.031-0.337,0.098l-2.922,1.664l-1.102,1.458c-0.228,0.302-0.34,0.522-0.333,0.665
				c0.007,0.14,0.106,0.29,0.299,0.446l-0.153,0.202l-1.923-1.455l0.153-0.201c0.211,0.148,0.385,0.201,0.524,0.159
				c0.137-0.042,0.315-0.206,0.535-0.496l0.878-1.164l0.977-3.396c0.064-0.224,0.074-0.407,0.028-0.55
				c-0.031-0.093-0.08-0.166-0.145-0.22l0.152-0.2L62.227,11.704z"></path>
			<path fill="#0027F1" d="M62.457,17.59l0.137,0.146c-0.463,0.589-0.733,1.089-0.809,1.501c-0.075,0.411-0.003,0.731,0.214,0.963
				c0.213,0.225,0.449,0.306,0.708,0.242c0.257-0.065,0.479-0.183,0.666-0.359c0.214-0.205,0.344-0.421,0.388-0.648
				c0.028-0.151,0.019-0.394-0.027-0.728l-0.072-0.543c-0.071-0.537-0.056-0.977,0.046-1.322c0.102-0.344,0.318-0.673,0.65-0.987
				c0.352-0.332,0.763-0.557,1.234-0.671c0.469-0.115,0.874,0.007,1.212,0.366c0.173,0.183,0.3,0.396,0.383,0.643
				c0.081,0.247,0.132,0.381,0.155,0.405c0.052,0.055,0.111,0.072,0.177,0.05c0.065-0.023,0.141-0.064,0.23-0.122l0.142,0.152
				l-1.572,1.485l-0.133-0.141c0.302-0.411,0.506-0.822,0.613-1.237c0.105-0.416,0.045-0.741-0.179-0.98
				c-0.159-0.166-0.351-0.237-0.574-0.208c-0.226,0.028-0.433,0.131-0.624,0.311c-0.228,0.216-0.354,0.422-0.382,0.621
				c-0.03,0.198-0.01,0.559,0.061,1.081l0.084,0.625c0.037,0.282,0.029,0.539-0.022,0.774c-0.098,0.444-0.342,0.849-0.732,1.217
				c-0.364,0.344-0.801,0.569-1.312,0.676c-0.51,0.107-0.972-0.058-1.383-0.496c-0.096-0.1-0.178-0.215-0.249-0.342
				c-0.07-0.128-0.124-0.27-0.163-0.422l-0.039-0.148c-0.011-0.032-0.023-0.061-0.039-0.086c-0.014-0.028-0.027-0.048-0.041-0.063
				c-0.048-0.052-0.104-0.067-0.166-0.044c-0.062,0.022-0.14,0.062-0.233,0.123l-0.138-0.146L62.457,17.59z"></path>
			<path fill="#0027F1" d="M70.375,20.376c0.051,0.329,0.085,0.509,0.105,0.536c0.052,0.072,0.133,0.099,0.243,0.085
				c0.109-0.014,0.211-0.045,0.306-0.097l0.113,0.156l-1.88,1.362l-0.104-0.141c0.311-0.431,0.532-0.803,0.666-1.115
				c0.243-0.58,0.244-1.035,0.003-1.367c-0.272-0.378-0.699-0.477-1.279-0.298c-0.579,0.177-1.261,0.55-2.044,1.118
				c-0.575,0.417-1.016,0.808-1.319,1.17c-0.57,0.678-0.684,1.254-0.341,1.726c0.209,0.29,0.52,0.476,0.929,0.558
				c0.238,0.045,0.573,0.059,1.006,0.041l-0.073,0.31c-0.51,0.035-0.905,0.026-1.184-0.027c-0.494-0.094-0.873-0.323-1.137-0.686
				c-0.402-0.554-0.504-1.19-0.304-1.907c0.219-0.793,0.77-1.51,1.653-2.149c0.873-0.634,1.726-0.948,2.556-0.943
				c0.778,0.005,1.363,0.28,1.757,0.822C70.217,19.764,70.327,20.046,70.375,20.376z"></path>
			<path fill="#0027F1" d="M65.865,24.916c0.096,0.16,0.189,0.26,0.279,0.299c0.151,0.068,0.354,0.037,0.609-0.094l4.283-2.193
				c0.249-0.127,0.391-0.265,0.427-0.412c0.02-0.089-0.005-0.232-0.074-0.429l0.224-0.114l1.073,2.094l-0.225,0.114
				c-0.107-0.174-0.205-0.282-0.296-0.324c-0.151-0.071-0.354-0.04-0.608,0.09l-1.834,0.94l0.755,1.474l1.833-0.94
				c0.254-0.129,0.397-0.272,0.43-0.429c0.02-0.096-0.011-0.242-0.088-0.439l0.223-0.113l1.079,2.105L73.73,26.66
				c-0.113-0.173-0.213-0.277-0.302-0.316c-0.145-0.066-0.343-0.034-0.595,0.095l-4.282,2.192c-0.259,0.132-0.402,0.285-0.433,0.454
				c-0.018,0.099,0.011,0.233,0.087,0.402l-0.224,0.116l-1.078-2.105l0.224-0.116c0.101,0.174,0.198,0.281,0.297,0.325
				c0.151,0.067,0.353,0.037,0.606-0.093l2.037-1.043l-0.754-1.474l-2.037,1.042c-0.262,0.134-0.409,0.288-0.436,0.459
				c-0.015,0.099,0.019,0.237,0.098,0.413l-0.225,0.113l-1.073-2.093L65.865,24.916z"></path>
			<path fill="#0027F1" d="M74.792,31.592c-0.485,0.659-1.223,1.147-2.217,1.469c-0.993,0.321-1.878,0.356-2.657,0.106
				c-0.757-0.245-1.245-0.699-1.459-1.365c-0.229-0.707-0.078-1.391,0.451-2.055c0.5-0.621,1.199-1.076,2.096-1.365
				c0.991-0.319,1.875-0.367,2.652-0.138c0.788,0.23,1.294,0.692,1.518,1.385C75.392,30.296,75.265,30.951,74.792,31.592z
				 M70.366,32.312c0.487-0.048,1.097-0.19,1.83-0.426c1.006-0.327,1.729-0.677,2.173-1.052c0.442-0.377,0.604-0.743,0.489-1.103
				c-0.162-0.502-0.7-0.706-1.61-0.616c-0.484,0.048-1.086,0.19-1.81,0.424c-0.736,0.238-1.312,0.479-1.732,0.724
				c-0.781,0.456-1.091,0.933-0.929,1.433C68.937,32.194,69.465,32.398,70.366,32.312z"></path>
			<path fill="#0027F1" d="M75.837,37.241c-0.582,0.573-1.391,0.937-2.422,1.094c-1.034,0.158-1.912,0.05-2.639-0.321
				c-0.709-0.364-1.117-0.891-1.222-1.583c-0.113-0.733,0.146-1.385,0.775-1.955c0.592-0.532,1.356-0.869,2.288-1.011
				c1.03-0.157,1.909-0.061,2.641,0.29c0.74,0.355,1.165,0.894,1.275,1.612C76.639,36.062,76.407,36.687,75.837,37.241z
				 M71.355,37.241c0.488,0.032,1.112-0.01,1.874-0.126c1.045-0.161,1.816-0.388,2.313-0.688c0.499-0.299,0.718-0.635,0.661-1.011
				c-0.079-0.519-0.578-0.807-1.492-0.865c-0.484-0.028-1.103,0.014-1.854,0.128c-0.763,0.116-1.373,0.26-1.826,0.436
				c-0.845,0.323-1.225,0.746-1.146,1.264C69.962,36.895,70.453,37.182,71.355,37.241z"></path>
			<path fill="#0027F1" d="M70.337,38.628c0.011,0.189,0.047,0.324,0.108,0.407c0.104,0.136,0.301,0.205,0.593,0.205l4.81-0.007
				c0.288,0,0.483-0.066,0.582-0.197c0.061-0.077,0.099-0.216,0.115-0.419h0.252l0.004,2.43l-0.252,0.001
				c-0.013-0.284-0.07-0.473-0.17-0.564c-0.099-0.094-0.346-0.14-0.738-0.14l-4.694,0.007c-0.219,0-0.365,0.041-0.436,0.12
				c-0.071,0.081-0.106,0.238-0.106,0.472c0.001,0.418,0.132,0.769,0.396,1.052c0.265,0.285,0.778,0.528,1.542,0.733v0.203
				l-2.25-0.278l-0.006-4.025H70.337z"></path>
		</g>
		<g>
			<path fill="#0027F1" d="M13.717,51.61l1.644,3.848l-1.841,0.794l-0.077-0.184c0.632-0.344,1.003-0.706,1.115-1.09
				c0.061-0.215,0.029-0.484-0.096-0.808L9.65,56.223c-0.337,0.146-0.542,0.281-0.617,0.409c-0.075,0.13-0.056,0.324,0.053,0.584
				l-0.231,0.1l-0.972-2.279l0.232-0.098c0.106,0.249,0.233,0.391,0.379,0.426c0.148,0.034,0.387-0.02,0.72-0.162l4.811-2.053
				c-0.144-0.307-0.316-0.515-0.516-0.629c-0.369-0.204-0.889-0.187-1.559,0.054l-0.078-0.185L13.717,51.61z"></path>
			<path fill="#0027F1" d="M9.873,58.947c0.111,0.149,0.213,0.239,0.307,0.271c0.157,0.054,0.356,0.004,0.599-0.152l4.054-2.588
				c0.236-0.15,0.364-0.302,0.386-0.453c0.012-0.09-0.026-0.228-0.112-0.419l0.213-0.135l1.265,1.983l-0.212,0.136
				c-0.124-0.163-0.231-0.262-0.326-0.296c-0.157-0.055-0.357-0.006-0.598,0.147l-1.737,1.11l0.891,1.395l1.737-1.108
				c0.241-0.154,0.37-0.31,0.387-0.468c0.011-0.098-0.034-0.241-0.131-0.429l0.213-0.136l1.273,1.993l-0.213,0.137
				c-0.128-0.16-0.239-0.254-0.331-0.285c-0.151-0.052-0.344-0.001-0.583,0.151L12.9,62.39c-0.245,0.157-0.373,0.322-0.387,0.494
				c-0.009,0.1,0.032,0.23,0.123,0.392l-0.212,0.136l-1.273-1.994l0.213-0.136c0.115,0.163,0.224,0.261,0.326,0.296
				c0.157,0.053,0.355,0.003,0.594-0.151l1.929-1.231l-0.892-1.396l-1.929,1.232c-0.249,0.158-0.377,0.324-0.39,0.497
				c-0.004,0.102,0.04,0.233,0.136,0.4l-0.211,0.137l-1.266-1.982L9.873,58.947z"></path>
			<path fill="#0027F1" d="M13.029,64.157l0.188-0.167c0.14,0.141,0.264,0.221,0.37,0.238c0.164,0.025,0.351-0.057,0.562-0.246
				l3.578-3.217c0.215-0.19,0.316-0.37,0.3-0.537c-0.006-0.098-0.072-0.228-0.194-0.389l0.188-0.168l2.677,2.979l-1.489,1.34
				l-0.113-0.126c0.417-0.494,0.642-0.897,0.676-1.214c0.035-0.314-0.135-0.68-0.509-1.097c-0.142-0.158-0.256-0.236-0.341-0.236
				c-0.085-0.003-0.198,0.06-0.338,0.186l-1.708,1.537c0.259,0.298,0.515,0.429,0.766,0.393c0.251-0.039,0.611-0.216,1.079-0.538
				l0.119,0.131l-2.497,2.244l-0.117-0.132c0.387-0.414,0.615-0.757,0.685-1.024c0.07-0.268-0.027-0.55-0.292-0.844l-1.789,1.607
				c-0.157,0.14-0.238,0.266-0.242,0.372c-0.006,0.105,0.068,0.248,0.227,0.424c0.296,0.328,0.629,0.517,1,0.56
				c0.369,0.046,0.878-0.077,1.528-0.366l0.127,0.144l-1.725,1.171L13.029,64.157z"></path>
			<path fill="#0027F1" d="M19.779,70.356c0.163,0.095,0.295,0.139,0.397,0.13c0.172-0.011,0.337-0.141,0.495-0.383l2.615-4.038
				c0.157-0.243,0.209-0.44,0.153-0.595c-0.032-0.093-0.126-0.201-0.288-0.324l0.137-0.212l1.804,1.169
				c0.348,0.224,0.6,0.469,0.756,0.73c0.294,0.495,0.258,1.025-0.11,1.594c-0.223,0.345-0.487,0.562-0.794,0.65
				c-0.307,0.088-0.58,0.092-0.821,0.015l-0.048,0.076c0.176,0.201,0.3,0.422,0.369,0.667c0.132,0.479,0.038,0.965-0.283,1.457
				c-0.298,0.463-0.689,0.74-1.173,0.832c-0.483,0.094-0.974-0.019-1.468-0.341l-1.878-1.216L19.779,70.356z M21.423,71.085
				c-0.031,0.15,0.022,0.27,0.157,0.356c0.275,0.179,0.538,0.197,0.787,0.054c0.251-0.142,0.505-0.411,0.76-0.807
				c0.383-0.593,0.515-1.064,0.397-1.42c-0.071-0.214-0.267-0.422-0.59-0.617l-1.348,2.083C21.491,70.883,21.438,71,21.423,71.085z
				 M23.988,68.615c0.231-0.089,0.486-0.346,0.765-0.774c0.206-0.318,0.338-0.611,0.398-0.88c0.059-0.271-0.026-0.479-0.255-0.627
				c-0.121-0.079-0.225-0.106-0.31-0.076c-0.086,0.027-0.177,0.117-0.276,0.267l-1.212,1.873
				C23.458,68.633,23.755,68.704,23.988,68.615z"></path>
			<path fill="#0027F1" d="M24.114,73.385l0.104-0.229c0.186,0.072,0.331,0.094,0.434,0.066c0.161-0.041,0.299-0.192,0.416-0.451
				l1.97-4.388c0.119-0.264,0.137-0.468,0.057-0.614c-0.045-0.087-0.157-0.179-0.334-0.275l0.104-0.229l3.653,1.64l-0.821,1.827
				l-0.153-0.069c0.181-0.619,0.224-1.08,0.128-1.382c-0.097-0.302-0.399-0.568-0.91-0.797c-0.193-0.088-0.329-0.115-0.408-0.08
				c-0.078,0.033-0.157,0.136-0.233,0.307l-0.941,2.097c0.358,0.17,0.645,0.185,0.859,0.049c0.215-0.136,0.472-0.445,0.771-0.927
				l0.162,0.072l-1.375,3.06l-0.162-0.071c0.188-0.535,0.257-0.941,0.213-1.216c-0.044-0.273-0.249-0.49-0.61-0.653l-0.986,2.193
				c-0.085,0.193-0.11,0.34-0.071,0.44c0.038,0.099,0.165,0.197,0.379,0.295c0.405,0.181,0.785,0.218,1.142,0.108
				c0.356-0.108,0.772-0.427,1.248-0.954l0.177,0.078l-1.103,1.769L24.114,73.385z"></path>
			<path fill="#0027F1" d="M29.686,73.26l0.192,0.057c-0.101,0.742-0.08,1.311,0.064,1.702c0.143,0.394,0.369,0.634,0.675,0.724
				c0.297,0.084,0.541,0.035,0.73-0.15c0.19-0.186,0.321-0.402,0.391-0.647c0.084-0.287,0.086-0.538,0.006-0.756
				c-0.052-0.144-0.183-0.35-0.391-0.614l-0.336-0.431c-0.334-0.426-0.544-0.815-0.633-1.163c-0.086-0.349-0.066-0.743,0.06-1.18
				c0.136-0.467,0.376-0.867,0.724-1.205c0.348-0.337,0.757-0.438,1.231-0.301c0.242,0.07,0.46,0.19,0.655,0.36
				c0.195,0.171,0.31,0.261,0.341,0.272c0.073,0.021,0.131,0.005,0.176-0.047c0.046-0.055,0.092-0.127,0.137-0.221l0.198,0.057
				l-0.602,2.076l-0.186-0.052c0.054-0.507,0.02-0.967-0.101-1.378c-0.119-0.412-0.334-0.663-0.649-0.754
				c-0.223-0.063-0.422-0.026-0.602,0.112c-0.179,0.137-0.305,0.334-0.377,0.584c-0.087,0.301-0.094,0.545-0.016,0.729
				c0.075,0.186,0.274,0.486,0.601,0.9l0.391,0.498c0.174,0.221,0.297,0.447,0.372,0.678c0.14,0.431,0.136,0.903-0.014,1.419
				c-0.139,0.481-0.401,0.896-0.786,1.247c-0.387,0.351-0.867,0.443-1.444,0.276c-0.133-0.038-0.262-0.096-0.387-0.172
				c-0.126-0.073-0.243-0.168-0.354-0.28l-0.108-0.106c-0.026-0.022-0.052-0.041-0.078-0.056c-0.026-0.017-0.047-0.027-0.067-0.031
				c-0.069-0.021-0.124-0.006-0.167,0.044c-0.042,0.05-0.088,0.124-0.138,0.226l-0.192-0.058L29.686,73.26z"></path>
			<path fill="#0027F1" d="M34.227,70.028l4.142,0.59l-0.275,1.984l-0.198-0.028c0.034-0.718-0.083-1.225-0.353-1.52
				c-0.154-0.162-0.4-0.274-0.742-0.337l-0.738,5.181c-0.052,0.36-0.043,0.607,0.029,0.738s0.248,0.217,0.527,0.257l-0.035,0.248
				l-2.453-0.35l0.035-0.25c0.269,0.04,0.457,0.006,0.562-0.104c0.105-0.106,0.185-0.34,0.234-0.696l0.741-5.182
				c-0.338-0.034-0.606,0.004-0.804,0.116c-0.368,0.21-0.622,0.663-0.765,1.361l-0.198-0.03L34.227,70.028z"></path>
			<path fill="#0027F1" d="M42.196,77.082c0.198-0.032,0.333-0.086,0.41-0.163c0.116-0.116,0.16-0.317,0.128-0.599l-0.53-4.776
				c-0.032-0.287-0.116-0.473-0.253-0.558c-0.084-0.053-0.23-0.077-0.439-0.073l-0.027-0.251l3.916-0.436l0.223,1.99l-0.169,0.021
				c-0.155-0.605-0.346-1.018-0.575-1.242c-0.23-0.224-0.617-0.305-1.161-0.243c-0.203,0.021-0.327,0.068-0.376,0.141
				c-0.047,0.072-0.061,0.197-0.041,0.379l0.253,2.283c0.375-0.031,0.615-0.172,0.721-0.422c0.105-0.248,0.163-0.634,0.173-1.155
				l0.175-0.02l0.37,3.335l-0.175,0.021c-0.106-0.529-0.246-0.907-0.415-1.136c-0.17-0.228-0.44-0.323-0.812-0.28l0.256,2.3
				c0.034,0.304,0.117,0.489,0.251,0.559c0.134,0.069,0.329,0.085,0.585,0.05l0.027,0.25l-2.486,0.275L42.196,77.082z"></path>
			<path fill="#0027F1" d="M47.017,76.514c0.224-0.078,0.362-0.18,0.417-0.309c0.053-0.13,0.033-0.37-0.062-0.726l-1.143-4.244
				c-0.099-0.367-0.214-0.596-0.341-0.682c-0.085-0.057-0.247-0.067-0.485-0.034l-0.065-0.243l2.161-0.582
				c0.448-0.12,0.829-0.15,1.143-0.092c0.61,0.128,1.011,0.544,1.2,1.249c0.141,0.521,0.11,0.97-0.089,1.346
				c-0.156,0.282-0.345,0.487-0.568,0.614l2.162,2.347c0.056,0.062,0.109,0.104,0.158,0.116c0.047,0.011,0.103,0.013,0.165,0.003
				l0.062,0.227l-1.4,0.378l-2.374-2.574h-0.003l0.506,1.877c0.091,0.339,0.192,0.555,0.301,0.651
				c0.11,0.095,0.285,0.118,0.524,0.067l0.065,0.243l-2.269,0.611L47.017,76.514z M48.741,72.48c0.145-0.217,0.136-0.63-0.027-1.234
				c-0.101-0.371-0.215-0.656-0.346-0.851c-0.223-0.332-0.499-0.454-0.829-0.364c-0.178,0.047-0.288,0.111-0.326,0.19
				c-0.04,0.079-0.038,0.192,0.002,0.338l0.656,2.438C48.307,72.871,48.598,72.698,48.741,72.48z"></path>
			<path fill="#0027F1" d="M54.064,68.029c0.713,0.4,1.289,1.073,1.729,2.021c0.44,0.946,0.583,1.822,0.43,2.623
				c-0.151,0.783-0.542,1.322-1.178,1.616c-0.672,0.313-1.371,0.247-2.093-0.197c-0.678-0.42-1.214-1.059-1.612-1.914
				c-0.439-0.943-0.593-1.815-0.46-2.614c0.132-0.812,0.531-1.37,1.19-1.677C52.707,67.591,53.371,67.639,54.064,68.029z
				 M55.319,72.332c-0.106-0.476-0.323-1.063-0.647-1.761c-0.445-0.96-0.881-1.636-1.308-2.028
				c-0.426-0.395-0.812-0.512-1.154-0.352c-0.477,0.222-0.616,0.779-0.415,1.674c0.109,0.474,0.321,1.056,0.642,1.744
				c0.326,0.7,0.637,1.244,0.93,1.631c0.547,0.72,1.059,0.969,1.536,0.745C55.376,73.767,55.515,73.217,55.319,72.332z"></path>
			<path fill="#0027F1" d="M58.108,72.324c0.212-0.16,0.311-0.316,0.298-0.468c-0.014-0.153-0.098-0.334-0.253-0.546l-2.784-3.81
				c-0.16-0.217-0.301-0.333-0.423-0.348c-0.124-0.015-0.286,0.032-0.487,0.148L54.31,67.1l1.414-1.034l3.818,2.903l0.045-0.033
				l-1.615-4.514l1.416-1.035l0.147,0.204c-0.174,0.16-0.268,0.304-0.279,0.435c-0.012,0.129,0.096,0.349,0.322,0.658l2.593,3.547
				c0.214,0.294,0.391,0.461,0.527,0.502s0.303-0.003,0.501-0.132l0.15,0.204l-1.864,1.362l-0.149-0.203
				c0.16-0.13,0.256-0.263,0.288-0.395c0.032-0.133-0.041-0.321-0.219-0.563l-2.864-3.918L58.5,65.117l2.07,5.718l-0.15,0.109
				l-4.766-3.602l-0.026,0.018l2.651,3.625c0.195,0.267,0.373,0.438,0.532,0.51c0.16,0.072,0.364,0.029,0.61-0.131l0.148,0.202
				l-1.312,0.96L58.108,72.324z"></path>
			<path fill="#0027F1" d="M66.744,65.007c0.15-0.22,0.194-0.398,0.133-0.539c-0.062-0.14-0.201-0.285-0.414-0.438l-3.859-2.712
				c-0.221-0.156-0.393-0.22-0.514-0.195c-0.122,0.025-0.26,0.124-0.414,0.299l-0.206-0.145l1.007-1.434l4.548,1.525l0.033-0.047
				l-2.979-3.757l1.009-1.434l0.205,0.145c-0.114,0.207-0.155,0.376-0.125,0.501c0.03,0.127,0.202,0.3,0.515,0.521l3.594,2.527
				c0.298,0.21,0.52,0.312,0.661,0.307c0.143-0.006,0.286-0.1,0.433-0.286l0.205,0.146L69.25,61.88l-0.207-0.144
				c0.111-0.176,0.16-0.331,0.146-0.467c-0.012-0.136-0.142-0.291-0.387-0.464l-3.972-2.793l-0.028,0.044l3.796,4.751L68.49,62.96
				l-5.67-1.884l-0.017,0.025l3.673,2.583c0.27,0.19,0.494,0.294,0.667,0.312c0.175,0.018,0.353-0.088,0.534-0.32l0.208,0.145
				l-0.936,1.331L66.744,65.007z"></path>
			<path fill="#0027F1" d="M71.035,59.029l-0.23-0.104c0.074-0.185,0.098-0.329,0.07-0.436c-0.039-0.158-0.189-0.298-0.448-0.416
				l-4.374-2.002c-0.263-0.12-0.468-0.142-0.614-0.061c-0.087,0.045-0.18,0.155-0.279,0.332l-0.229-0.106l1.667-3.641l1.821,0.833
				l-0.07,0.153c-0.619-0.186-1.08-0.23-1.384-0.137c-0.301,0.094-0.569,0.395-0.801,0.903c-0.09,0.194-0.117,0.33-0.084,0.409
				c0.034,0.078,0.136,0.156,0.306,0.234l2.09,0.955c0.171-0.356,0.189-0.643,0.056-0.859c-0.135-0.215-0.442-0.474-0.922-0.774
				l0.073-0.161l3.052,1.396l-0.075,0.16c-0.535-0.19-0.938-0.264-1.213-0.221c-0.274,0.042-0.494,0.244-0.658,0.605l2.188,0.998
				c0.19,0.089,0.337,0.113,0.437,0.076c0.101-0.038,0.2-0.162,0.297-0.378c0.186-0.401,0.224-0.782,0.117-1.14
				c-0.107-0.357-0.422-0.776-0.946-1.255l0.081-0.175l1.761,1.115L71.035,59.029z"></path>
		</g>
	</g>
	<circle fill="#0027F1" cx="8.602" cy="47.932" r="2.82"></circle>
	<circle fill="#0027F1" cx="72.482" cy="47.559" r="2.82"></circle>
</g>
<g>
	<path fill="#1A31A9" d="M90.632,33.957c0.052-0.094,0.201-0.194,0.447-0.304c0.247-0.109,0.427-0.163,0.54-0.163
		c0.254,0,0.402,0.103,0.444,0.311c0.062,0.374,0.169,0.776,0.324,1.206c0.154,0.431,0.388,0.905,0.701,1.424
		c0.313,0.518,0.678,0.982,1.094,1.392c0.416,0.411,0.942,0.754,1.579,1.035c0.637,0.279,1.326,0.42,2.065,0.42
		c0.333,0,0.655-0.037,0.967-0.108c0.312-0.073,0.613-0.177,0.904-0.312c0.292-0.135,0.554-0.309,0.787-0.521
		c0.234-0.213,0.439-0.456,0.616-0.73c0.177-0.275,0.314-0.597,0.413-0.965c0.099-0.369,0.148-0.77,0.148-1.206
		c0-0.29-0.032-0.573-0.094-0.849c-0.062-0.274-0.164-0.536-0.304-0.785c-0.141-0.249-0.278-0.476-0.413-0.684
		c-0.135-0.208-0.325-0.42-0.569-0.639c-0.245-0.217-0.458-0.401-0.639-0.551c-0.182-0.15-0.426-0.327-0.733-0.529
		c-0.307-0.203-0.551-0.36-0.733-0.475c-0.182-0.113-0.439-0.272-0.771-0.474c-0.333-0.203-0.572-0.345-0.717-0.429
		c-0.063-0.041-0.146-0.093-0.25-0.155c-0.385-0.239-0.677-0.422-0.877-0.552c-0.2-0.129-0.479-0.319-0.837-0.567
		c-0.358-0.25-0.637-0.457-0.837-0.623c-0.2-0.166-0.448-0.383-0.746-0.653c-0.296-0.27-0.53-0.513-0.699-0.731
		c-0.169-0.217-0.354-0.48-0.553-0.786c-0.2-0.306-0.351-0.606-0.453-0.902c-0.103-0.295-0.19-0.622-0.261-0.98
		c-0.072-0.358-0.107-0.728-0.107-1.112c0-0.892,0.206-1.737,0.617-2.535c0.412-0.799,0.953-1.471,1.622-2.015
		c0.669-0.544,1.436-0.974,2.3-1.292c0.865-0.315,1.745-0.474,2.64-0.474c0.486,0,0.974,0.031,1.465,0.093
		c0.49,0.062,0.896,0.13,1.214,0.203c0.319,0.072,0.779,0.187,1.381,0.341c0.602,0.157,1.101,0.276,1.499,0.358
		c0.157,1.349,0.287,3.167,0.392,5.46c-0.031,0.166-0.161,0.249-0.389,0.249c-0.622,0-0.954-0.109-0.995-0.327
		c-0.051-0.383-0.155-0.792-0.312-1.228c-0.157-0.436-0.372-0.876-0.645-1.323c-0.273-0.445-0.582-0.848-0.926-1.206
		c-0.344-0.358-0.753-0.648-1.229-0.871s-0.971-0.334-1.486-0.334c-1.112,0-1.967,0.312-2.564,0.934
		c-0.598,0.622-0.896,1.458-0.896,2.504c0,0.25,0.031,0.496,0.093,0.739c0.063,0.245,0.133,0.464,0.211,0.661
		c0.078,0.197,0.202,0.409,0.374,0.639c0.171,0.228,0.319,0.419,0.444,0.575c0.125,0.155,0.314,0.341,0.569,0.56
		c0.255,0.217,0.455,0.389,0.6,0.514c0.145,0.124,0.371,0.296,0.678,0.513c0.307,0.218,0.53,0.371,0.671,0.459
		c0.14,0.087,0.382,0.243,0.724,0.467c0.343,0.222,0.572,0.37,0.687,0.442c0.156,0.104,0.4,0.259,0.733,0.467
		c0.301,0.187,0.529,0.332,0.684,0.436c0.154,0.104,0.375,0.256,0.659,0.458c0.285,0.203,0.509,0.374,0.674,0.513
		c0.165,0.141,0.372,0.32,0.622,0.537c0.249,0.219,0.449,0.42,0.599,0.606c0.15,0.188,0.319,0.402,0.509,0.646
		c0.19,0.243,0.339,0.49,0.449,0.739c0.11,0.25,0.217,0.517,0.322,0.801c0.105,0.287,0.18,0.586,0.225,0.902
		c0.044,0.317,0.067,0.646,0.067,0.988c0,0.944-0.208,1.831-0.625,2.661c-0.416,0.83-0.968,1.522-1.658,2.076
		c-0.69,0.555-1.479,0.994-2.367,1.315s-1.799,0.482-2.732,0.482c-0.7,0-1.5-0.066-2.401-0.195c-0.901-0.13-1.567-0.239-2-0.327
		c-0.433-0.088-1.147-0.246-2.146-0.474c-0.175-0.82-0.343-1.867-0.502-3.143C90.759,35.278,90.664,34.413,90.632,33.957z"></path>
	<path fill="#1A31A9" d="M108.507,39.859c0-0.284,0.037-0.479,0.108-0.583c0.374,0,0.843-0.049,1.408-0.148
		c0.565-0.099,0.879-0.241,0.941-0.427c0.156-0.499,0.233-1.488,0.233-2.972V21.604c0-1.482-0.078-2.473-0.233-2.971
		c-0.041-0.104-0.166-0.197-0.373-0.279c-0.208-0.083-0.443-0.146-0.708-0.187c-0.265-0.041-0.511-0.075-0.739-0.102
		c-0.229-0.025-0.405-0.038-0.53-0.038c-0.072-0.104-0.108-0.298-0.108-0.584c0-0.285,0.037-0.479,0.108-0.583
		c1.888,0.135,3.423,0.203,4.605,0.203c0.757,0,2.603-0.046,5.538-0.14c2.935-0.094,4.921-0.141,5.958-0.141
		c0.104,0.704,0.296,1.687,0.576,2.948s0.43,1.957,0.451,2.086c-0.115,0.118-0.363,0.177-0.747,0.177
		c-0.28,0-0.457-0.083-0.529-0.253c-0.384-1.224-0.889-2.107-1.517-2.65c-0.628-0.543-1.444-0.815-2.45-0.815h-2.987
		c-1.306,0-2.012,0.132-2.116,0.395c-0.031,0.085-0.057,0.184-0.077,0.3c-0.021,0.116-0.037,0.222-0.047,0.316
		c-0.011,0.094-0.019,0.229-0.024,0.402c-0.004,0.174-0.008,0.308-0.008,0.402c0,0.096,0,0.255,0,0.482c0,0.226,0,0.387,0,0.481
		v6.52c0,0.095,0.146,0.172,0.436,0.229c0.291,0.058,0.643,0.087,1.058,0.087h1.882c0.29,0,0.542-0.004,0.754-0.008
		c0.212-0.005,0.417-0.021,0.614-0.048c0.197-0.027,0.364-0.05,0.499-0.072c0.134-0.021,0.267-0.064,0.396-0.129
		c0.129-0.063,0.235-0.124,0.319-0.184c0.083-0.059,0.166-0.146,0.249-0.264c0.083-0.117,0.147-0.223,0.194-0.32
		c0.047-0.095,0.102-0.236,0.164-0.424c0.062-0.186,0.114-0.356,0.156-0.511c0.042-0.155,0.099-0.365,0.171-0.631
		c0.031-0.192,0.196-0.288,0.498-0.288c0.28,0,0.493,0.086,0.638,0.257v6.709c-0.093,0.137-0.295,0.206-0.606,0.206
		c-0.28,0-0.457-0.096-0.529-0.288c-0.156-0.597-0.306-1.065-0.451-1.407c-0.146-0.341-0.262-0.562-0.35-0.664
		c-0.088-0.102-0.2-0.188-0.334-0.264c-0.333-0.171-1.411-0.255-3.236-0.255c-1.68,0-2.521,0.13-2.521,0.39v6.066
		c0,1.552,0.073,2.454,0.218,2.704c0.166,0.198,0.441,0.331,0.825,0.399c0.384,0.068,0.913,0.097,1.587,0.086h2.193
		c1.669,0,2.915-0.33,3.734-0.99c0.84-0.702,1.524-1.871,2.053-3.504c0.042-0.146,0.208-0.22,0.498-0.22
		c0.187,0,0.387,0.024,0.599,0.069c0.212,0.046,0.344,0.105,0.397,0.174c-0.083,0.216-0.26,0.702-0.529,1.456
		c-0.27,0.753-0.472,1.324-0.606,1.712c-0.135,0.387-0.285,0.859-0.451,1.417c-0.166,0.558-0.275,1.017-0.327,1.379
		c-0.612,0-2.349-0.013-5.211-0.039c-2.862-0.026-5.18-0.039-6.953-0.039c-0.799,0-1.722,0.013-2.77,0.039
		c-1.047,0.025-1.674,0.039-1.882,0.039C108.543,40.339,108.507,40.146,108.507,39.859z"></path>
	<path fill="#1A31A9" d="M128.963,39.945c0-0.232,0.037-0.424,0.109-0.575c0.383,0,0.93-0.088,1.641-0.265
		c0.71-0.176,1.143-0.42,1.299-0.731c0.093-0.188,0.181-0.545,0.264-1.076c0.083-0.53,0.135-0.986,0.156-1.371
		c0.052-0.997,0.099-2.097,0.14-3.302c0.042-1.206,0.081-2.339,0.117-3.404c0.036-1.064,0.072-2.147,0.108-3.249
		c0.037-1.101,0.065-2.037,0.086-2.812c0.021-0.773,0.039-1.477,0.054-2.11c0.016-0.634,0.029-1.012,0.039-1.137
		c0-0.01,0-0.08,0-0.21c0-0.13-0.002-0.218-0.008-0.265c-0.005-0.047-0.01-0.12-0.016-0.219c-0.005-0.098-0.019-0.181-0.039-0.248
		c-0.021-0.068-0.052-0.133-0.094-0.196c-0.093-0.197-0.435-0.37-1.026-0.521c-0.591-0.15-1.053-0.226-1.385-0.226
		c-0.062-0.083-0.088-0.288-0.078-0.615c0.01-0.327,0.037-0.511,0.078-0.553c0.394,0.011,0.967,0.048,1.719,0.11
		c0.751,0.062,1.434,0.093,2.045,0.093c0.187,0,0.381-0.002,0.583-0.008c0.202-0.004,0.389-0.012,0.56-0.022
		c0.171-0.011,0.353-0.024,0.544-0.04c0.192-0.016,0.369-0.031,0.53-0.046c0.16-0.016,0.339-0.031,0.536-0.046
		c0.197-0.016,0.378-0.029,0.544-0.04c0.249,0.655,0.765,1.896,1.548,3.724c0.782,1.827,1.731,4.037,2.847,6.628
		c1.114,2.59,2.014,4.702,2.699,6.332c0,0.051,0.046,0.078,0.14,0.078c0.01,0,0.031-0.011,0.062-0.031
		c0.031-0.021,0.06-0.044,0.085-0.071c0.026-0.026,0.039-0.055,0.039-0.086c1.432-3.634,3.023-7.763,4.776-12.385
		c0.083-0.218,0.173-0.459,0.272-0.725c0.099-0.265,0.189-0.524,0.272-0.779c0.083-0.254,0.168-0.511,0.256-0.771
		c0.088-0.259,0.166-0.498,0.233-0.716c0.067-0.217,0.13-0.412,0.187-0.583c0.057-0.171,0.095-0.308,0.116-0.412l0.047-0.14
		c0.969,0.093,2.086,0.14,3.35,0.14c0.468,0,1.845-0.068,4.133-0.203c0.03,0.073,0.064,0.276,0.101,0.607
		c0.036,0.332,0.034,0.529-0.008,0.591c-0.259,0-0.653,0.053-1.182,0.155c-0.529,0.105-0.855,0.218-0.98,0.344
		c-0.208,0.25-0.312,0.721-0.312,1.417c0.011,0.509,0.045,1.776,0.102,3.801c0.057,2.026,0.113,4.096,0.171,6.208
		c0.058,2.114,0.106,3.846,0.148,5.196c0.01,0.135,0.02,0.358,0.03,0.67s0.021,0.538,0.031,0.678
		c0.01,0.141,0.024,0.335,0.045,0.585c0.02,0.248,0.042,0.449,0.067,0.599s0.058,0.316,0.098,0.499
		c0.041,0.182,0.091,0.345,0.15,0.491c0.081,0.208,0.399,0.36,0.956,0.459c0.558,0.098,1.001,0.148,1.332,0.148
		c0.07,0.141,0.11,0.349,0.121,0.621c0,0.051,0,0.102,0,0.152c0,0.192-0.016,0.323-0.046,0.394
		c-0.133-0.009-0.763-0.052-1.888-0.127c-1.125-0.077-1.988-0.115-2.592-0.115c-0.642,0-1.56,0.038-2.753,0.115
		c-1.195,0.075-1.931,0.118-2.211,0.127c-0.052-0.05-0.086-0.222-0.102-0.514c-0.016-0.294,0.008-0.511,0.07-0.652
		c0.332,0,0.772-0.044,1.322-0.132c0.55-0.088,0.902-0.21,1.058-0.367c0.094-0.104,0.169-0.298,0.226-0.583
		c0.057-0.286,0.086-0.553,0.086-0.802c0-0.136-0.011-0.468-0.031-0.998c-0.021-0.529-0.031-0.897-0.031-1.105
		c-0.238-8.715-0.368-13.321-0.389-13.82c0-0.041-0.006-0.098-0.016-0.17c-0.011-0.073-0.023-0.161-0.039-0.265
		s-0.044-0.192-0.086-0.265c-0.041-0.073-0.093-0.108-0.155-0.108c-0.052,0-0.109,0.082-0.171,0.248
		c-0.509,1.278-1.678,4.309-3.508,9.091c-1.831,4.783-2.953,7.704-3.368,8.763c-0.114,0.257-0.327,0.585-0.638,0.987
		c-0.311,0.401-0.57,0.611-0.777,0.631c-0.073,0-0.182-0.026-0.327-0.078l-8.292-19.643c-0.28,9.638-0.436,14.965-0.466,15.983
		c0,0.8,0.046,1.392,0.14,1.776c0.093,0.27,0.516,0.479,1.268,0.631c0.751,0.15,1.309,0.226,1.672,0.226
		c0.072,0.091,0.114,0.285,0.124,0.583c0.01,0.297-0.005,0.492-0.046,0.583c-0.26-0.009-0.854-0.052-1.782-0.127
		c-0.928-0.077-1.693-0.115-2.294-0.115c-0.623,0-1.398,0.038-2.326,0.115c-0.928,0.075-1.585,0.118-1.968,0.127
		C129,40.403,128.963,40.227,128.963,39.945z"></path>
	<path fill="#1A31A9" d="M161.833,39.859c0-0.284,0.036-0.479,0.108-0.583c0.373,0,0.843-0.049,1.408-0.148
		c0.564-0.099,0.879-0.241,0.94-0.427c0.156-0.499,0.233-1.488,0.233-2.972V21.604c0-1.482-0.077-2.473-0.233-2.971
		c-0.052-0.135-0.249-0.248-0.591-0.342c-0.342-0.093-0.671-0.155-0.987-0.186c-0.317-0.031-0.573-0.047-0.771-0.047
		c-0.072-0.104-0.108-0.298-0.108-0.583s0.036-0.48,0.108-0.584c2.032,0.095,3.567,0.141,4.604,0.141
		c0.426,0,1.224-0.018,2.396-0.055c1.173-0.036,2.126-0.054,2.862-0.054c0.665,0,1.312,0.056,1.942,0.171s1.253,0.309,1.867,0.583
		c0.615,0.275,1.151,0.614,1.609,1.019c0.459,0.404,0.83,0.926,1.111,1.563c0.282,0.637,0.423,1.345,0.423,2.124
		c0,0.529-0.088,1.04-0.264,1.532c-0.177,0.493-0.397,0.916-0.662,1.268c-0.266,0.352-0.563,0.679-0.898,0.979
		c-0.333,0.301-0.64,0.54-0.919,0.716c-0.279,0.175-0.537,0.311-0.771,0.403c-0.053,0.021-0.092,0.048-0.117,0.079
		c-0.026,0.031-0.037,0.056-0.031,0.078c0.005,0.02,0.017,0.042,0.038,0.062c0.38,0.02,0.803,0.122,1.271,0.303
		c0.468,0.181,0.955,0.443,1.458,0.785c0.507,0.343,0.966,0.739,1.383,1.19c0.415,0.451,0.757,0.993,1.025,1.626
		c0.269,0.632,0.402,1.292,0.402,1.975c0,1.079-0.306,2.129-0.915,3.15c-0.608,1.021-1.392,1.839-2.352,2.45
		c-0.624,0.405-1.354,0.719-2.187,0.942s-1.62,0.365-2.365,0.427s-1.638,0.093-2.679,0.093h-8.232
		C161.87,40.339,161.833,40.146,161.833,39.859z M168.569,27.173h2.707c1.058,0,1.896-0.386,2.512-1.159
		c0.618-0.772,0.926-1.754,0.926-2.947c0-1.587-0.372-2.782-1.119-3.587c-0.748-0.803-1.779-1.206-3.097-1.206
		c-1.079,0-1.669,0.13-1.773,0.389c-0.031,0.062-0.054,0.132-0.069,0.21s-0.028,0.168-0.038,0.272
		c-0.012,0.104-0.02,0.203-0.024,0.296c-0.005,0.093-0.011,0.217-0.017,0.374c-0.005,0.155-0.007,0.282-0.007,0.381s0,0.243,0,0.436
		s0,0.34,0,0.443V27.173z M168.569,36.289c0,1.276,0.098,2.033,0.296,2.271c0.187,0.228,0.479,0.374,0.879,0.436
		c0.398,0.062,0.946,0.093,1.641,0.093c0.457,0,0.892-0.043,1.308-0.131c0.415-0.088,0.831-0.25,1.252-0.482
		c0.42-0.234,0.783-0.535,1.09-0.902c0.306-0.369,0.551-0.851,0.737-1.447c0.188-0.597,0.28-1.273,0.28-2.03
		c0-0.57-0.046-1.107-0.14-1.61c-0.093-0.502-0.268-1.003-0.521-1.501c-0.254-0.498-0.584-0.922-0.987-1.274
		c-0.405-0.354-0.934-0.639-1.587-0.856c-0.653-0.219-1.405-0.327-2.256-0.327h-1.991V36.289z"></path>
	<path fill="#1A31A9" d="M181.169,39.914c0-0.239,0.026-0.43,0.078-0.576c0.27,0,0.677-0.093,1.222-0.28
		c0.545-0.186,0.894-0.389,1.05-0.607c0.467-0.696,0.953-1.667,1.462-2.914c4.087-9.835,6.481-15.672,7.188-17.51
		c0.072-0.166,0.191-0.34,0.357-0.522c0.166-0.181,0.34-0.334,0.521-0.458c0.182-0.125,0.329-0.188,0.442-0.188
		c0.239,0,0.405,0.048,0.498,0.141l7.233,18.501c0.114,0.27,0.227,0.545,0.334,0.826c0.11,0.28,0.198,0.511,0.266,0.692
		c0.066,0.183,0.135,0.359,0.202,0.531c0.067,0.17,0.117,0.304,0.148,0.397c0.113,0.26,0.303,0.489,0.566,0.688
		c0.265,0.198,0.54,0.339,0.825,0.421c0.285,0.083,0.531,0.146,0.739,0.187c0.206,0.043,0.362,0.063,0.467,0.063
		c0.093,0.124,0.14,0.342,0.14,0.653c0,0.031,0,0.057,0,0.078c0,0.242-0.025,0.388-0.078,0.436
		c-0.197-0.008-0.813-0.048-1.852-0.116c-1.037-0.068-1.86-0.102-2.473-0.102c-0.644,0-1.563,0.036-2.761,0.109
		c-1.198,0.073-1.851,0.108-1.953,0.108c-0.093-0.08-0.141-0.288-0.141-0.621s0.048-0.515,0.141-0.545
		c0.301,0,0.671-0.05,1.112-0.148c0.44-0.099,0.755-0.231,0.94-0.399c0.146-0.136,0.219-0.312,0.219-0.531
		c0-0.208-0.188-0.828-0.56-1.859c-0.374-1.03-0.747-2.009-1.121-2.937l-0.56-1.406c-0.073-0.094-0.141-0.141-0.203-0.141
		c-0.341-0.02-0.728-0.031-1.157-0.031c-0.432,0-0.888,0.006-1.369,0.016c-0.482,0.011-0.812,0.015-0.988,0.015
		c-1.515,0-2.743,0.026-3.688,0.079c-0.031,0-0.074,0.018-0.131,0.054c-0.058,0.037-0.086,0.065-0.086,0.086
		c-0.644,1.521-1.126,2.734-1.447,3.64c-0.186,0.5-0.34,0.992-0.458,1.477c-0.119,0.483-0.179,0.82-0.179,1.007
		c0,0.208,0.113,0.388,0.341,0.539c0.229,0.151,0.506,0.264,0.833,0.336c0.326,0.073,0.609,0.125,0.848,0.157
		c0.238,0.031,0.414,0.046,0.528,0.046c0.062,0.073,0.094,0.26,0.094,0.562c0,0.302-0.021,0.504-0.062,0.604
		c-0.196-0.008-0.404-0.022-0.622-0.041s-0.408-0.036-0.567-0.055c-0.161-0.018-0.339-0.034-0.537-0.047
		c-0.197-0.014-0.384-0.025-0.561-0.035c-0.175-0.008-0.38-0.018-0.614-0.027c-0.232-0.008-0.474-0.013-0.724-0.013
		c-0.486,0-0.923,0.011-1.306,0.034c-0.384,0.022-0.822,0.055-1.315,0.095c-0.491,0.041-0.883,0.071-1.174,0.088
		C181.207,40.406,181.169,40.218,181.169,39.914z M188.949,30.051c0,0.093,0.024,0.141,0.076,0.141
		c0.81,0.072,1.811,0.109,3.003,0.109c0.841,0,1.81-0.037,2.909-0.109c0.021,0,0.042-0.016,0.063-0.048
		c0.019-0.031,0.03-0.062,0.03-0.093l0.015-0.031l-2.971-7.638L188.949,30.051z"></path>
	<path fill="#1A31A9" d="M202.575,16.859c2.033,0.135,3.595,0.203,4.687,0.203c1.061,0,2.542-0.068,4.441-0.203
		c0.051,0.104,0.075,0.307,0.07,0.607c-0.006,0.301-0.046,0.487-0.117,0.56c-0.093,0-0.213,0.007-0.358,0.022
		s-0.327,0.044-0.544,0.086c-0.218,0.042-0.418,0.098-0.6,0.171c-0.181,0.073-0.336,0.179-0.467,0.318
		c-0.13,0.14-0.194,0.292-0.194,0.458c0,0.073,0.012,0.168,0.038,0.288c0.026,0.119,0.067,0.265,0.122,0.438
		c0.056,0.173,0.109,0.338,0.16,0.497c0.05,0.157,0.117,0.365,0.199,0.622c0.082,0.258,0.15,0.471,0.204,0.639
		c0.237,0.741,0.554,1.732,0.952,2.972c0.396,1.241,0.747,2.338,1.053,3.292s0.621,1.939,0.948,2.958
		c0.324,1.019,0.577,1.81,0.759,2.373c0.27-0.817,0.733-2.22,1.39-4.208s1.376-4.168,2.16-6.54c0.783-2.372,1.258-3.813,1.423-4.323
		c0.104-0.321,0.274-0.606,0.514-0.856c0.238-0.248,0.456-0.374,0.652-0.374c0.145,0,0.285,0.188,0.419,0.561
		c0.746,1.969,1.793,4.798,3.14,8.485c1.346,3.687,2.294,6.344,2.843,7.972c0.213-0.706,0.562-1.869,1.051-3.495
		c0.486-1.625,0.973-3.238,1.453-4.844c0.482-1.604,0.855-2.843,1.118-3.718c0.372-1.348,0.557-2.245,0.557-2.69
		c0-0.208-0.11-0.389-0.333-0.544c-0.222-0.155-0.49-0.272-0.807-0.35s-0.6-0.132-0.848-0.164c-0.249-0.031-0.446-0.046-0.592-0.046
		c-0.084-0.073-0.122-0.259-0.117-0.56c0.006-0.301,0.046-0.503,0.117-0.607c1.988,0.135,3.322,0.203,4.003,0.203
		c0.622,0,1.337-0.031,2.146-0.093s1.332-0.099,1.571-0.11c0.062,0.094,0.093,0.26,0.093,0.498c0,0.032,0,0.068,0,0.11
		c-0.01,0.301-0.052,0.487-0.124,0.56c-0.279,0-0.685,0.067-1.213,0.202c-0.53,0.135-0.918,0.327-1.167,0.575
		c-0.487,0.549-0.938,1.48-1.354,2.797c-1.101,3.588-2.932,9.405-5.496,17.452c-0.123,0.385-0.329,0.731-0.618,1.04
		c-0.289,0.307-0.542,0.459-0.759,0.459c-0.187,0-0.36-0.166-0.525-0.497c-0.394-1.161-1.373-3.847-2.942-8.056
		c-1.568-4.208-2.543-6.868-2.926-7.977c-0.298,0.917-0.716,2.2-1.251,3.847c-0.534,1.646-1.147,3.531-1.837,5.65
		c-0.688,2.121-1.278,3.943-1.768,5.463c-0.083,0.29-0.268,0.624-0.554,1.002c-0.286,0.377-0.53,0.566-0.728,0.566
		c-0.187,0-0.363-0.166-0.53-0.498c-0.344-1.087-1.347-4.103-3.008-9.043c-1.662-4.94-2.674-7.994-3.039-9.157
		c-0.435-1.379-0.85-2.338-1.244-2.878c-0.198-0.312-0.537-0.547-1.019-0.708c-0.482-0.161-0.885-0.241-1.206-0.241
		c-0.073-0.073-0.109-0.25-0.109-0.529C202.465,17.155,202.501,16.943,202.575,16.859z"></path>
	<path fill="#1A31A9" d="M232.924,39.914c0-0.239,0.026-0.43,0.078-0.576c0.27,0,0.677-0.093,1.222-0.28
		c0.545-0.186,0.894-0.389,1.05-0.607c0.467-0.696,0.953-1.667,1.462-2.914c4.087-9.835,6.481-15.672,7.188-17.51
		c0.072-0.166,0.191-0.34,0.357-0.522c0.166-0.181,0.34-0.334,0.521-0.458c0.182-0.125,0.329-0.188,0.443-0.188
		c0.238,0,0.404,0.048,0.497,0.141l7.233,18.501c0.114,0.27,0.227,0.545,0.334,0.826c0.11,0.28,0.198,0.511,0.266,0.692
		c0.066,0.183,0.135,0.359,0.202,0.531c0.067,0.17,0.117,0.304,0.148,0.397c0.113,0.26,0.303,0.489,0.567,0.688
		c0.264,0.198,0.539,0.339,0.824,0.421c0.285,0.083,0.531,0.146,0.739,0.187c0.206,0.043,0.362,0.063,0.467,0.063
		c0.093,0.124,0.14,0.342,0.14,0.653c0,0.031,0,0.057,0,0.078c0,0.242-0.025,0.388-0.078,0.436
		c-0.196-0.008-0.813-0.048-1.852-0.116c-1.037-0.068-1.86-0.102-2.473-0.102c-0.644,0-1.563,0.036-2.761,0.109
		c-1.198,0.073-1.851,0.108-1.953,0.108c-0.093-0.08-0.141-0.288-0.141-0.621s0.048-0.515,0.141-0.545
		c0.301,0,0.671-0.05,1.112-0.148c0.44-0.099,0.755-0.231,0.941-0.399c0.146-0.136,0.218-0.312,0.218-0.531
		c0-0.208-0.188-0.828-0.56-1.859c-0.374-1.03-0.747-2.009-1.121-2.937l-0.56-1.406c-0.073-0.094-0.141-0.141-0.203-0.141
		c-0.341-0.02-0.728-0.031-1.157-0.031c-0.432,0-0.887,0.006-1.369,0.016c-0.482,0.011-0.812,0.015-0.988,0.015
		c-1.515,0-2.743,0.026-3.688,0.079c-0.031,0-0.074,0.018-0.131,0.054c-0.058,0.037-0.086,0.065-0.086,0.086
		c-0.644,1.521-1.126,2.734-1.447,3.64c-0.186,0.5-0.34,0.992-0.458,1.477c-0.119,0.483-0.179,0.82-0.179,1.007
		c0,0.208,0.113,0.388,0.341,0.539c0.229,0.151,0.506,0.264,0.833,0.336c0.326,0.073,0.609,0.125,0.848,0.157
		c0.239,0.031,0.414,0.046,0.529,0.046c0.062,0.073,0.093,0.26,0.093,0.562c0,0.302-0.021,0.504-0.062,0.604
		c-0.196-0.008-0.404-0.022-0.621-0.041c-0.219-0.018-0.408-0.036-0.568-0.055c-0.161-0.018-0.339-0.034-0.537-0.047
		c-0.197-0.014-0.384-0.025-0.56-0.035c-0.176-0.008-0.381-0.018-0.615-0.027c-0.232-0.008-0.474-0.013-0.724-0.013
		c-0.486,0-0.922,0.011-1.306,0.034c-0.384,0.022-0.822,0.055-1.315,0.095c-0.491,0.041-0.883,0.071-1.174,0.088
		C232.961,40.406,232.924,40.218,232.924,39.914z M240.704,30.051c0,0.093,0.024,0.141,0.076,0.141
		c0.81,0.072,1.811,0.109,3.003,0.109c0.841,0,1.81-0.037,2.909-0.109c0.021,0,0.042-0.016,0.063-0.048
		c0.019-0.031,0.03-0.062,0.03-0.093l0.015-0.031l-2.971-7.638L240.704,30.051z"></path>
	<path fill="#1A31A9" d="M257.674,39.875c0-0.275,0.037-0.464,0.109-0.568c0.353,0,0.876-0.078,1.571-0.234
		c0.694-0.155,1.105-0.352,1.229-0.591c0.258-0.488,0.389-1.49,0.389-3.004V21.482c0-1.349-0.167-2.284-0.499-2.802
		c-0.124-0.188-0.502-0.351-1.135-0.49s-1.104-0.21-1.416-0.21c-0.082-0.103-0.127-0.299-0.132-0.591
		c-0.005-0.292,0.028-0.484,0.102-0.576c0.237,0.02,0.635,0.046,1.189,0.077c0.554,0.03,1.031,0.056,1.432,0.077
		c0.399,0.02,0.811,0.031,1.236,0.031c1.09,0,2.179-0.046,3.267-0.138c0.363,0.632,1.061,1.62,2.093,2.961
		c1.032,1.341,2.112,2.695,3.243,4.063c1.13,1.368,2.413,2.936,3.851,4.705c1.436,1.77,2.595,3.236,3.477,4.398
		c0.021-0.094,0.031-0.674,0.031-1.744v-9.014c0-1.815-0.13-2.989-0.39-3.518c-0.104-0.208-0.492-0.382-1.166-0.521
		s-1.204-0.21-1.587-0.21c-0.073-0.071-0.115-0.248-0.124-0.53c-0.011-0.282,0.016-0.494,0.077-0.637
		c0.321,0.02,0.946,0.066,1.875,0.138c0.928,0.072,1.697,0.107,2.31,0.107c0.611,0,1.383-0.036,2.31-0.107
		c0.929-0.072,1.554-0.118,1.876-0.138c0.062,0.185,0.093,0.379,0.093,0.583c0,0.184-0.042,0.378-0.124,0.583
		c-0.364,0-0.902,0.067-1.619,0.202c-0.715,0.135-1.135,0.327-1.259,0.577c-0.229,0.467-0.343,1.603-0.343,3.409V35.4
		c0,0.851,0.047,2.505,0.14,4.965c-0.093,0.093-0.352,0.14-0.777,0.14c-0.167,0-0.355-0.073-0.567-0.217
		c-0.213-0.146-0.402-0.343-0.568-0.592l-14.934-18.665v14.479c0,1.515,0.113,2.496,0.342,2.942c0.093,0.217,0.501,0.41,1.222,0.575
		c0.72,0.166,1.251,0.25,1.594,0.25c0.095,0.125,0.14,0.319,0.14,0.583c0,0.265-0.025,0.47-0.076,0.615
		c-0.219-0.009-0.831-0.054-1.836-0.131c-1.008-0.079-1.811-0.117-2.411-0.117c-0.623,0-1.364,0.036-2.225,0.108
		c-0.862,0.073-1.495,0.12-1.898,0.14C257.711,40.35,257.674,40.15,257.674,39.875z"></path>
	<path fill="#1A31A9" d="M284.96,28.916c0-1.639,0.313-3.207,0.941-4.707c0.627-1.498,1.476-2.799,2.544-3.904
		c1.066-1.104,2.355-1.986,3.864-2.644c1.511-0.659,3.104-0.988,4.784-0.988c2.767,0,5.276,0.238,7.529,0.716
		c0,0.021,0.086,0.458,0.257,1.314c0.171,0.855,0.337,1.701,0.498,2.535c0.161,0.835,0.241,1.314,0.241,1.439
		c0,0.135-0.089,0.261-0.266,0.381c-0.175,0.119-0.362,0.179-0.56,0.179c-0.238,0-0.404-0.057-0.498-0.17
		c-0.053-0.239-0.113-0.464-0.182-0.677c-0.067-0.212-0.182-0.496-0.346-0.849c-0.162-0.352-0.351-0.673-0.565-0.964
		c-0.215-0.29-0.507-0.596-0.874-0.918c-0.366-0.321-0.77-0.591-1.21-0.808c-0.44-0.219-0.984-0.4-1.63-0.545
		c-0.645-0.145-1.35-0.217-2.115-0.217c-0.727,0-1.419,0.099-2.076,0.296c-0.659,0.197-1.248,0.472-1.767,0.824
		c-0.519,0.353-0.993,0.773-1.423,1.26c-0.431,0.488-0.801,1.024-1.112,1.61s-0.573,1.208-0.786,1.867
		c-0.212,0.659-0.371,1.335-0.475,2.03s-0.155,1.4-0.155,2.115c0,0.935,0.078,1.851,0.234,2.75c0.155,0.897,0.381,1.761,0.675,2.585
		c0.297,0.826,0.68,1.584,1.152,2.275c0.472,0.69,1.009,1.292,1.61,1.807c0.602,0.513,1.301,0.913,2.1,1.2
		c0.798,0.285,1.654,0.427,2.567,0.427c1.316,0,2.498-0.259,3.546-0.778c0.188-0.073,0.28-0.24,0.28-0.499v-3.866
		c0-0.062,0-0.202,0-0.42s0-0.358,0-0.421c0-0.062-0.002-0.177-0.008-0.342c-0.005-0.166-0.016-0.294-0.031-0.382
		s-0.033-0.194-0.054-0.32c-0.021-0.124-0.053-0.244-0.095-0.358c-0.051-0.188-0.264-0.343-0.637-0.468
		c-0.374-0.125-0.717-0.202-1.026-0.233c-0.312-0.031-0.582-0.048-0.81-0.048c-0.073-0.031-0.119-0.21-0.14-0.536
		c-0.021-0.327,0.01-0.537,0.093-0.63c0.368,0.02,0.895,0.049,1.578,0.084c0.683,0.037,1.301,0.068,1.854,0.094
		c0.552,0.025,1.064,0.039,1.537,0.039c0.42,0,0.855-0.013,1.31-0.039c0.454-0.026,0.956-0.057,1.508-0.094
		c0.55-0.036,0.984-0.064,1.301-0.084c0.072,0.166,0.106,0.394,0.106,0.684c0,0.292-0.034,0.452-0.105,0.482
		c-0.25,0-0.63,0.055-1.139,0.165c-0.507,0.109-0.816,0.235-0.926,0.381c-0.182,0.313-0.272,0.998-0.272,2.058v3.164
		c0,0.197,0.034,0.433,0.102,0.709s0.102,0.455,0.102,0.537c0,0.207-0.327,0.464-0.979,0.773c-0.478,0.208-0.874,0.377-1.19,0.511
		c-0.317,0.135-0.747,0.289-1.291,0.464c-0.545,0.176-1.066,0.313-1.564,0.411c-0.497,0.098-1.094,0.185-1.789,0.263
		c-0.694,0.078-1.425,0.116-2.192,0.116c-1.691,0-3.282-0.303-4.775-0.91c-1.495-0.606-2.77-1.429-3.827-2.466
		c-1.059-1.036-1.893-2.274-2.505-3.71C285.266,32.03,284.96,30.513,284.96,28.916z"></path>
	<path fill="#1A31A9" d="M89.727,61.212c0.257,0,0.599-0.035,1.026-0.112c0.428-0.073,0.656-0.169,0.685-0.281
		c0.085-0.272,0.128-0.886,0.128-1.841v-10.6c0-0.954-0.043-1.563-0.128-1.827c-0.028-0.121-0.256-0.22-0.685-0.294
		c-0.428-0.075-0.77-0.112-1.026-0.112c-0.057-0.064-0.086-0.183-0.086-0.354c0-0.007,0-0.018,0-0.032
		c0-0.156,0.029-0.268,0.086-0.332c0.171,0.008,0.479,0.024,0.925,0.05c0.445,0.024,0.818,0.044,1.117,0.058
		c0.299,0.015,0.595,0.021,0.888,0.021c0.286,0,0.811-0.009,1.578-0.027c0.766-0.017,1.417-0.026,1.952-0.026
		c0.361,0,0.724,0.032,1.085,0.097c0.361,0.063,0.713,0.16,1.054,0.288s0.663,0.283,0.965,0.464c0.302,0.182,0.579,0.399,0.83,0.65
		c0.25,0.253,0.466,0.527,0.647,0.821c0.181,0.296,0.321,0.625,0.422,0.988c0.101,0.363,0.151,0.747,0.151,1.153
		c0,0.993-0.223,1.869-0.668,2.631c-0.446,0.761-1.072,1.344-1.88,1.752c-0.807,0.405-1.737,0.611-2.788,0.611
		c-0.15,0-0.335-0.02-0.556-0.056c-0.221-0.038-0.389-0.088-0.502-0.155c-0.235-0.152-0.354-0.341-0.354-0.561
		c0-0.028,0.011-0.058,0.032-0.091c0.021-0.031,0.054-0.04,0.096-0.026c0.421,0.115,0.734,0.17,0.941,0.17
		c0.499,0,0.963-0.084,1.391-0.256c0.428-0.169,0.8-0.418,1.118-0.74c0.317-0.324,0.564-0.73,0.743-1.222
		c0.179-0.489,0.268-1.039,0.268-1.643c0-1.258-0.346-2.254-1.037-2.986c-0.692-0.732-1.708-1.099-3.048-1.099
		c-0.756,0-1.169,0.086-1.241,0.257c-0.085,0.192-0.128,0.813-0.128,1.861v10.565c0,0.955,0.043,1.568,0.128,1.841
		c0.028,0.112,0.257,0.208,0.685,0.281c0.428,0.077,0.77,0.112,1.027,0.112c0.05,0.064,0.076,0.184,0.081,0.36
		c0.003,0.175-0.023,0.294-0.081,0.358c-0.179-0.007-0.485-0.023-0.92-0.05c-0.435-0.024-0.802-0.043-1.102-0.058
		c-0.3-0.015-0.595-0.021-0.888-0.021s-0.588,0.007-0.888,0.021s-0.672,0.033-1.117,0.058c-0.446,0.026-0.754,0.043-0.925,0.05
		c-0.057-0.058-0.086-0.17-0.086-0.332C89.641,61.413,89.669,61.284,89.727,61.212z"></path>
	<path fill="#1A31A9" d="M104.308,61.212c0.257,0,0.599-0.035,1.026-0.112c0.428-0.073,0.656-0.169,0.685-0.281
		c0.085-0.272,0.128-0.886,0.128-1.841v-10.6c0-0.954-0.043-1.563-0.128-1.827c-0.028-0.121-0.256-0.22-0.685-0.294
		c-0.428-0.075-0.77-0.112-1.026-0.112c-0.057-0.064-0.086-0.183-0.086-0.354c0-0.007,0-0.018,0-0.032
		c0-0.156,0.029-0.268,0.086-0.332c0.171,0.008,0.479,0.024,0.925,0.05c0.445,0.024,0.818,0.044,1.117,0.058
		c0.299,0.015,0.596,0.021,0.888,0.021c0.286,0,0.812-0.009,1.578-0.027c0.766-0.017,1.417-0.026,1.952-0.026
		c0.443,0,0.891,0.058,1.344,0.171c0.453,0.113,0.893,0.29,1.318,0.529c0.425,0.237,0.803,0.522,1.131,0.854
		c0.329,0.33,0.593,0.733,0.794,1.206c0.201,0.473,0.301,0.979,0.301,1.518c0,0.438-0.094,0.874-0.281,1.315
		c-0.187,0.442-0.434,0.841-0.741,1.199c-0.307,0.355-0.65,0.673-1.032,0.949c-0.382,0.277-0.773,0.49-1.176,0.631
		c0.634,1.064,1.246,2.024,1.834,2.876c0.588,0.855,1.311,1.841,2.166,2.963c0.371,0.494,0.765,0.854,1.182,1.081
		c0.417,0.229,0.957,0.37,1.62,0.418c0.036,0.058,0.054,0.141,0.054,0.246c0,0.043-0.003,0.091-0.011,0.141
		c-0.022,0.17-0.048,0.282-0.078,0.332c-1.677,0-2.812-0.101-3.407-0.301c-0.014-0.007-0.037-0.015-0.066-0.021
		c-0.089-0.028-0.16-0.053-0.211-0.074s-0.126-0.055-0.224-0.096c-0.098-0.043-0.184-0.09-0.26-0.141
		c-0.077-0.05-0.163-0.109-0.26-0.182c-0.098-0.071-0.192-0.157-0.286-0.255c-0.094-0.101-0.186-0.208-0.275-0.322
		c-0.208-0.291-0.725-1.067-1.551-2.325s-1.588-2.444-2.289-3.557c-0.129-0.198-0.375-0.299-0.738-0.299h-1.315v4.619
		c0,0.955,0.043,1.568,0.128,1.841c0.028,0.112,0.256,0.208,0.684,0.281c0.428,0.077,0.77,0.112,1.027,0.112
		c0.05,0.064,0.076,0.184,0.081,0.36c0.003,0.175-0.023,0.294-0.081,0.358c-0.179-0.007-0.485-0.023-0.92-0.05
		c-0.435-0.024-0.802-0.043-1.102-0.058s-0.595-0.021-0.888-0.021c-0.292,0-0.588,0.007-0.888,0.021s-0.672,0.033-1.117,0.058
		c-0.446,0.026-0.754,0.043-0.925,0.05c-0.057-0.058-0.086-0.17-0.086-0.332C104.222,61.413,104.25,61.284,104.308,61.212z
		 M108.308,53.565h1.337c0.484,0,0.957-0.083,1.417-0.25c0.46-0.167,0.87-0.401,1.23-0.704c0.36-0.301,0.651-0.681,0.872-1.135
		c0.221-0.455,0.331-0.945,0.331-1.473c0-0.547-0.071-1.043-0.213-1.487c-0.143-0.443-0.364-0.833-0.663-1.167
		c-0.3-0.334-0.697-0.595-1.192-0.779c-0.496-0.185-1.079-0.276-1.749-0.276c-0.756,0-1.17,0.086-1.241,0.255
		c-0.085,0.192-0.128,0.811-0.128,1.855V53.565z"></path>
	<path fill="#1A31A9" d="M120.803,61.212c0.257,0,0.599-0.035,1.027-0.112c0.428-0.073,0.656-0.169,0.685-0.281
		c0.085-0.272,0.128-0.886,0.128-1.841v-10.6c0-0.954-0.043-1.563-0.128-1.827c-0.029-0.121-0.257-0.22-0.685-0.294
		c-0.428-0.075-0.77-0.112-1.027-0.112c-0.057-0.064-0.086-0.183-0.086-0.354c0-0.007,0-0.018,0-0.032
		c0-0.156,0.029-0.268,0.086-0.332c0.171,0.008,0.479,0.024,0.925,0.05c0.445,0.024,0.818,0.044,1.117,0.058
		c0.3,0.015,0.596,0.021,0.888,0.021c0.228,0,0.472-0.006,0.732-0.017s0.491-0.021,0.69-0.032c0.2-0.009,0.45-0.023,0.749-0.041
		c0.299-0.019,0.545-0.031,0.738-0.039c0.057,0.058,0.085,0.169,0.085,0.332c0,0.008,0,0.019,0,0.032
		c0,0.171-0.028,0.289-0.085,0.354c-0.257,0-0.599,0.037-1.026,0.112c-0.428,0.074-0.657,0.173-0.685,0.294
		c-0.085,0.264-0.128,0.873-0.128,1.827v10.6c0,0.955,0.043,1.568,0.128,1.841c0.028,0.112,0.256,0.208,0.685,0.281
		c0.428,0.077,0.77,0.112,1.026,0.112c0.057,0.072,0.085,0.193,0.085,0.365c0,0.008,0,0.015,0,0.021
		c0,0.155-0.028,0.268-0.085,0.332c-0.178-0.007-0.485-0.023-0.92-0.05c-0.435-0.024-0.802-0.043-1.102-0.058
		c-0.299-0.015-0.595-0.021-0.887-0.021s-0.588,0.007-0.888,0.021c-0.299,0.015-0.672,0.033-1.117,0.058
		c-0.446,0.026-0.754,0.043-0.925,0.05c-0.057-0.058-0.086-0.17-0.086-0.332C120.717,61.413,120.746,61.284,120.803,61.212z"></path>
	<path fill="#1A31A9" d="M129.407,61.62c0-0.028,0-0.05,0-0.064c0-0.143,0.018-0.258,0.053-0.344c0.271,0,0.651-0.04,1.14-0.121
		c0.488-0.082,0.779-0.191,0.871-0.327c0.171-0.249,0.271-0.661,0.3-1.239c0.071-1.798,0.135-3.646,0.191-5.546
		s0.097-3.38,0.123-4.439c0.024-1.058,0.037-1.684,0.037-1.877c0-0.478-0.035-0.81-0.106-0.993
		c-0.043-0.129-0.287-0.249-0.732-0.358c-0.445-0.111-0.779-0.166-1-0.166c-0.029,0-0.043-0.112-0.043-0.338
		c0-0.225,0.014-0.351,0.043-0.38c0.228,0.015,0.601,0.04,1.117,0.075c0.516,0.036,0.994,0.054,1.434,0.054
		c0.425,0,1.092-0.043,2-0.129c0.142,0.45,0.512,1.402,1.113,2.856c0.601,1.453,1.317,3.185,2.151,5.188s1.484,3.59,1.95,4.76
		c0.014,0.033,0.046,0.053,0.096,0.053c0.056,0,0.095-0.033,0.116-0.096c2.396-6.233,3.649-9.491,3.763-9.775
		c0.133-0.344,0.291-0.762,0.471-1.259c0.18-0.494,0.327-0.906,0.44-1.234l0.18-0.492c1.061,0.064,1.717,0.097,1.968,0.097
		c1.037,0,1.968-0.032,2.795-0.097l0.074,0.718c-0.235,0-0.574,0.048-1.016,0.145c-0.442,0.096-0.691,0.197-0.749,0.305
		c-0.085,0.186-0.128,0.498-0.128,0.939c0.015,0.509,0.038,1.399,0.07,2.674c0.032,1.277,0.066,2.774,0.102,4.488
		c0.036,1.714,0.061,2.943,0.075,3.684c0.037,1.155,0.141,1.957,0.312,2.406c0.059,0.15,0.309,0.26,0.751,0.327
		c0.441,0.066,0.795,0.1,1.063,0.1c0.051,0.094,0.078,0.22,0.078,0.38c0,0.162-0.011,0.274-0.033,0.339
		c-0.154-0.007-0.458-0.023-0.911-0.05c-0.452-0.024-0.836-0.043-1.153-0.058s-0.644-0.021-0.982-0.021
		c-0.336,0-0.658,0.007-0.966,0.021c-0.307,0.015-0.656,0.031-1.046,0.053c-0.39,0.021-0.713,0.04-0.971,0.055
		c-0.028-0.028-0.046-0.131-0.053-0.306c-0.007-0.174,0.01-0.312,0.053-0.413c0.211,0,0.512-0.026,0.904-0.078
		c0.392-0.056,0.659-0.12,0.802-0.198c0.158-0.086,0.237-0.433,0.237-1.039c0-0.112-0.012-0.351-0.035-0.711
		c-0.023-0.358-0.035-0.604-0.035-0.73c-0.188-5.092-0.328-8.633-0.421-10.621c0-0.086-0.02-0.188-0.059-0.311
		c-0.039-0.121-0.094-0.181-0.164-0.181c-0.036,0-0.078,0.057-0.127,0.172c-0.375,0.947-2.102,5.32-5.182,13.122
		c-0.085,0.184-0.233,0.437-0.445,0.759c-0.212,0.32-0.375,0.492-0.488,0.514c-0.028,0.007-0.103-0.012-0.223-0.055l-5.998-14.49
		c-0.021,1.005-0.046,2.119-0.074,3.347c-0.029,1.227-0.057,2.354-0.085,3.385s-0.057,1.991-0.085,2.882
		c-0.029,0.893-0.05,1.606-0.064,2.146c-0.015,0.537-0.021,0.829-0.021,0.872c0,0.334,0.035,0.592,0.105,0.769
		c0.064,0.157,0.333,0.271,0.807,0.344c0.473,0.071,0.852,0.104,1.134,0.104c0.057,0.064,0.085,0.184,0.085,0.36
		c0,0.175-0.011,0.294-0.032,0.358c-0.221-0.015-0.498-0.033-0.832-0.055c-0.333-0.021-0.636-0.038-0.906-0.053
		s-0.565-0.021-0.885-0.021c-0.341,0-0.659,0.007-0.954,0.021s-0.627,0.031-0.997,0.053c-0.37,0.021-0.687,0.04-0.949,0.055
		C129.432,61.895,129.414,61.79,129.407,61.62z"></path>
	<path fill="#1A31A9" d="M152.063,61.608c0-0.177,0.018-0.311,0.053-0.396c0.207,0,0.48-0.043,0.818-0.129
		c0.339-0.086,0.562-0.203,0.669-0.349c0.228-0.296,0.426-0.625,0.594-0.988c0.167-0.36,0.357-0.821,0.571-1.377
		c2.189-5.591,3.786-9.673,4.792-12.246c0.028-0.058,0.083-0.129,0.165-0.215c0.083-0.085,0.172-0.165,0.268-0.24
		c0.097-0.075,0.192-0.137,0.289-0.188c0.097-0.05,0.169-0.075,0.22-0.075c0.027,0,0.055,0.011,0.08,0.032
		c0.024,0.021,0.048,0.036,0.069,0.043l5.07,13.251c0.405,1.084,0.612,1.631,0.619,1.638c0.07,0.177,0.237,0.337,0.498,0.476
		c0.26,0.139,0.499,0.233,0.716,0.289c0.217,0.052,0.372,0.078,0.466,0.078c0.057,0.072,0.086,0.193,0.086,0.365
		c0,0.17-0.013,0.289-0.034,0.354c-0.205-0.007-0.489-0.023-0.85-0.05c-0.36-0.024-0.683-0.043-0.967-0.058
		c-0.286-0.015-0.59-0.021-0.909-0.021c-0.343,0-0.66,0.007-0.952,0.021s-0.621,0.031-0.984,0.053s-0.677,0.04-0.94,0.055
		c-0.064-0.064-0.093-0.184-0.086-0.358c0.007-0.177,0.043-0.296,0.107-0.36c0.185,0,0.438-0.031,0.759-0.096
		c0.321-0.066,0.531-0.143,0.631-0.229c0.064-0.072,0.097-0.191,0.097-0.358c0-0.225-0.141-0.745-0.423-1.563
		c-0.281-0.819-0.562-1.58-0.84-2.292l-0.428-1.053c-0.05-0.071-0.1-0.107-0.149-0.107c-0.214-0.015-1.03-0.021-2.449-0.021
		c-1.041,0-1.936,0.024-2.685,0.074c-0.014,0-0.032,0.007-0.054,0.017c-0.021,0.012-0.039,0.023-0.053,0.038l-0.011,0.021
		c-0.464,1.246-0.838,2.271-1.123,3.072c-0.229,0.688-0.342,1.287-0.342,1.793c0,0.107,0.053,0.208,0.16,0.299
		s0.233,0.159,0.38,0.205c0.146,0.048,0.306,0.088,0.48,0.119c0.175,0.033,0.319,0.055,0.434,0.067
		c0.114,0.009,0.199,0.014,0.257,0.014c0.035,0.036,0.059,0.148,0.069,0.332c0.011,0.187,0.002,0.315-0.027,0.387
		c-0.235-0.015-0.493-0.033-0.775-0.055c-0.281-0.021-0.542-0.038-0.78-0.053s-0.522-0.021-0.851-0.021
		c-0.335,0-0.633,0.007-0.893,0.021c-0.261,0.015-0.547,0.031-0.86,0.053c-0.314,0.021-0.614,0.04-0.899,0.055
		C152.081,61.895,152.063,61.787,152.063,61.608z M157.357,54.466c0,0.062,0.014,0.096,0.043,0.096
		c0.862,0.035,1.614,0.053,2.256,0.053c0.62,0,1.315-0.024,2.086-0.074c0.014,0,0.028-0.012,0.043-0.033
		c0.014-0.021,0.024-0.041,0.032-0.062v-0.033l-2.183-5.999L157.357,54.466z"></path>
	<path fill="#1A31A9" d="M170.173,61.212c0.258,0,0.599-0.035,1.026-0.112c0.429-0.073,0.656-0.169,0.685-0.281
		c0.086-0.272,0.129-0.886,0.129-1.841v-10.6c0-0.954-0.043-1.563-0.129-1.827c-0.028-0.121-0.256-0.22-0.685-0.294
		c-0.428-0.075-0.769-0.112-1.026-0.112c-0.058-0.064-0.086-0.183-0.086-0.354c0-0.007,0-0.018,0-0.032
		c0-0.156,0.028-0.268,0.086-0.332c0.172,0.008,0.479,0.024,0.926,0.05c0.444,0.024,0.817,0.044,1.117,0.058
		c0.299,0.015,0.595,0.021,0.888,0.021c0.284,0,0.811-0.009,1.577-0.027c0.767-0.017,1.417-0.026,1.951-0.026
		c0.443,0,0.891,0.058,1.345,0.171c0.453,0.113,0.893,0.29,1.317,0.529c0.425,0.237,0.802,0.522,1.132,0.854
		c0.328,0.33,0.592,0.733,0.794,1.206c0.2,0.473,0.301,0.979,0.301,1.518c0,0.438-0.095,0.874-0.281,1.315
		c-0.188,0.442-0.435,0.841-0.742,1.199c-0.306,0.355-0.649,0.673-1.031,0.949c-0.382,0.277-0.773,0.49-1.176,0.631
		c0.634,1.064,1.246,2.024,1.835,2.876c0.587,0.855,1.311,1.841,2.165,2.963c0.37,0.494,0.765,0.854,1.182,1.081
		c0.418,0.229,0.957,0.37,1.621,0.418c0.036,0.058,0.053,0.141,0.053,0.246c0,0.043-0.003,0.091-0.011,0.141
		c-0.023,0.17-0.048,0.282-0.078,0.332c-1.677,0-2.812-0.101-3.406-0.301c-0.015-0.007-0.037-0.015-0.067-0.021
		c-0.088-0.028-0.159-0.053-0.211-0.074c-0.051-0.021-0.127-0.055-0.223-0.096c-0.099-0.043-0.185-0.09-0.261-0.141
		c-0.076-0.05-0.163-0.109-0.26-0.182c-0.099-0.071-0.193-0.157-0.287-0.255c-0.093-0.101-0.186-0.208-0.275-0.322
		c-0.209-0.291-0.725-1.067-1.551-2.325s-1.589-2.444-2.289-3.557c-0.129-0.198-0.375-0.299-0.737-0.299h-1.315v4.619
		c0,0.955,0.043,1.568,0.127,1.841c0.028,0.112,0.257,0.208,0.685,0.281c0.429,0.077,0.771,0.112,1.026,0.112
		c0.05,0.064,0.076,0.184,0.081,0.36c0.002,0.175-0.023,0.294-0.081,0.358c-0.178-0.007-0.484-0.023-0.919-0.05
		c-0.435-0.024-0.803-0.043-1.102-0.058c-0.3-0.015-0.596-0.021-0.888-0.021c-0.293,0-0.589,0.007-0.888,0.021
		c-0.3,0.015-0.673,0.033-1.117,0.058c-0.446,0.026-0.754,0.043-0.926,0.05c-0.058-0.058-0.086-0.17-0.086-0.332
		C170.087,61.413,170.116,61.284,170.173,61.212z M174.174,53.565h1.337c0.484,0,0.957-0.083,1.415-0.25
		c0.461-0.167,0.871-0.401,1.23-0.704c0.359-0.301,0.65-0.681,0.873-1.135c0.22-0.455,0.33-0.945,0.33-1.473
		c0-0.547-0.07-1.043-0.213-1.487c-0.144-0.443-0.364-0.833-0.664-1.167c-0.299-0.334-0.697-0.595-1.191-0.779
		c-0.496-0.185-1.079-0.276-1.75-0.276c-0.755,0-1.169,0.086-1.24,0.255c-0.084,0.192-0.127,0.811-0.127,1.855V53.565z"></path>
	<path fill="#1A31A9" d="M184.316,45.834c0-0.206,0.032-0.343,0.097-0.407c0.277,0.015,0.613,0.032,1.01,0.054
		s0.752,0.04,1.069,0.054c0.317,0.015,0.658,0.021,1.022,0.021c0.463,0,1.521-0.043,3.176-0.129
		c0.028,0.079,0.042,0.219,0.037,0.418c-0.003,0.199-0.033,0.3-0.091,0.3c-0.107,0-0.235,0.012-0.385,0.037
		c-0.15,0.025-0.312,0.064-0.486,0.118c-0.175,0.053-0.321,0.137-0.439,0.251c-0.117,0.114-0.177,0.245-0.177,0.396
		c0,0.172,0.101,0.418,0.301,0.737l3.426,5.959c0.234-0.423,0.487-0.896,0.762-1.418c0.274-0.525,0.537-1.036,0.79-1.535
		s0.494-0.981,0.724-1.449c0.227-0.468,0.422-0.876,0.587-1.229s0.285-0.618,0.364-0.797c0.049-0.15,0.075-0.275,0.075-0.375
		c0-0.064-0.027-0.131-0.081-0.202c-0.053-0.072-0.142-0.145-0.262-0.22c-0.122-0.075-0.304-0.134-0.546-0.177
		c-0.243-0.043-0.527-0.064-0.855-0.064c-0.036,0-0.059-0.11-0.069-0.331s-0.002-0.354,0.026-0.396
		c0.192,0.015,0.457,0.035,0.791,0.059c0.336,0.025,0.632,0.043,0.889,0.054s0.523,0.017,0.802,0.017
		c0.385,0,0.72-0.006,1.005-0.017s0.59-0.028,0.914-0.054c0.325-0.023,0.595-0.044,0.809-0.059c0.021,0.051,0.032,0.129,0.032,0.235
		c0,0.058-0.005,0.122-0.012,0.193c-0.015,0.199-0.038,0.299-0.074,0.299c-0.064,0-0.129,0.002-0.193,0.006
		c-0.063,0.004-0.175,0.012-0.331,0.026c-0.156,0.014-0.304,0.045-0.443,0.092c-0.14,0.045-0.289,0.103-0.45,0.171
		c-0.16,0.067-0.31,0.162-0.449,0.282c-0.138,0.121-0.25,0.26-0.336,0.418c-0.507,0.885-1.814,3.292-3.925,7.219
		c-0.021,0.043-0.041,0.091-0.06,0.139c-0.017,0.05-0.03,0.093-0.037,0.129c-0.007,0.035-0.014,0.083-0.016,0.138
		c-0.005,0.058-0.007,0.099-0.011,0.12s-0.004,0.064,0,0.126c0.004,0.064,0.006,0.105,0.006,0.119l-0.033,3.817
		c0,0.955,0.043,1.568,0.129,1.841c0.028,0.112,0.258,0.208,0.689,0.281c0.432,0.077,0.771,0.112,1.022,0.112
		c0.049,0.064,0.076,0.184,0.078,0.36c0.005,0.175-0.021,0.294-0.078,0.358c-0.18-0.007-0.486-0.023-0.921-0.05
		c-0.436-0.024-0.801-0.043-1.099-0.058c-0.297-0.015-0.588-0.021-0.874-0.021c-0.287,0-0.58,0.007-0.881,0.021
		s-0.674,0.033-1.12,0.058c-0.445,0.026-0.749,0.043-0.914,0.05c-0.064-0.064-0.093-0.184-0.086-0.358
		c0.007-0.177,0.036-0.296,0.086-0.36c0.25,0,0.589-0.035,1.017-0.112c0.428-0.073,0.659-0.169,0.695-0.281
		c0.086-0.272,0.129-0.886,0.129-1.841v-3.743c0-0.233-0.062-0.466-0.183-0.694c-0.514-0.934-1.12-2.02-1.818-3.257
		c-0.699-1.236-1.265-2.243-1.7-3.021c-0.257-0.449-0.505-0.798-0.744-1.044c-0.238-0.245-0.536-0.468-0.893-0.667
		c-0.199-0.121-0.439-0.22-0.721-0.294c-0.282-0.075-0.505-0.112-0.669-0.112C184.348,46.145,184.316,46.041,184.316,45.834z"></path>
	<path fill="#1A31A9" d="M208.282,57.533c0.077-0.078,0.178-0.147,0.299-0.207c0.122-0.061,0.235-0.091,0.342-0.091
		c0.15,0,0.243,0.073,0.279,0.222c0.027,0.162,0.069,0.332,0.127,0.511c0.055,0.177,0.138,0.392,0.247,0.647
		c0.108,0.253,0.232,0.496,0.373,0.726c0.141,0.229,0.32,0.461,0.538,0.694c0.219,0.234,0.455,0.437,0.712,0.611
		c0.257,0.172,0.562,0.312,0.918,0.418c0.354,0.107,0.735,0.159,1.144,0.159c0.542,0,1.037-0.114,1.483-0.341
		s0.807-0.573,1.083-1.038c0.274-0.466,0.412-1.011,0.412-1.636c0-0.22-0.019-0.428-0.055-0.621
		c-0.035-0.195-0.093-0.374-0.172-0.539c-0.077-0.162-0.16-0.312-0.246-0.446c-0.086-0.136-0.2-0.268-0.342-0.394
		c-0.144-0.129-0.277-0.241-0.402-0.337c-0.124-0.096-0.284-0.201-0.477-0.312c-0.192-0.115-0.361-0.211-0.504-0.289
		c-0.143-0.076-0.325-0.18-0.547-0.304c-0.221-0.124-0.41-0.229-0.566-0.314c-0.028-0.013-0.075-0.041-0.139-0.084
		c-0.358-0.212-0.633-0.377-0.822-0.489c-0.189-0.114-0.453-0.286-0.791-0.518c-0.337-0.229-0.604-0.43-0.797-0.602
		c-0.193-0.17-0.413-0.387-0.658-0.649c-0.246-0.263-0.434-0.519-0.564-0.767c-0.129-0.248-0.241-0.53-0.337-0.848
		c-0.096-0.315-0.144-0.645-0.144-0.983c0-0.638,0.137-1.236,0.407-1.793c0.271-0.559,0.632-1.024,1.078-1.397
		c0.447-0.372,0.959-0.663,1.537-0.874c0.578-0.212,1.172-0.316,1.785-0.316c0.357,0,0.697,0.02,1.018,0.061
		c0.322,0.041,0.586,0.088,0.794,0.145c0.206,0.055,0.505,0.137,0.894,0.243c0.39,0.107,0.737,0.198,1.043,0.272
		c0.107,0.714,0.223,1.879,0.344,3.495c0.014,0.077-0.041,0.144-0.167,0.196c-0.124,0.053-0.239,0.078-0.347,0.078
		c-0.121,0-0.214-0.03-0.278-0.095c-0.029-0.261-0.098-0.542-0.209-0.843s-0.268-0.609-0.472-0.927
		c-0.203-0.319-0.435-0.606-0.695-0.864c-0.262-0.258-0.574-0.471-0.942-0.637c-0.369-0.166-0.757-0.249-1.162-0.249
		c-0.279,0-0.542,0.031-0.788,0.091c-0.247,0.061-0.461,0.142-0.644,0.244c-0.183,0.104-0.346,0.227-0.493,0.367
		c-0.146,0.144-0.267,0.296-0.363,0.458c-0.097,0.165-0.179,0.337-0.241,0.519c-0.064,0.179-0.111,0.36-0.14,0.537
		c-0.029,0.177-0.043,0.351-0.043,0.521c0,0.243,0.03,0.475,0.091,0.699c0.062,0.222,0.135,0.42,0.219,0.59
		c0.087,0.172,0.211,0.346,0.37,0.527c0.161,0.182,0.31,0.332,0.445,0.454c0.135,0.119,0.317,0.26,0.547,0.42
		c0.229,0.16,0.419,0.286,0.573,0.382c0.153,0.098,0.361,0.225,0.626,0.385c0.266,0.159,0.469,0.286,0.611,0.377
		c0.137,0.086,0.354,0.22,0.654,0.4c0.3,0.182,0.54,0.327,0.723,0.442c0.183,0.112,0.416,0.271,0.706,0.473
		c0.289,0.202,0.524,0.384,0.705,0.544c0.183,0.16,0.381,0.355,0.595,0.59c0.215,0.236,0.382,0.463,0.504,0.688
		c0.12,0.225,0.225,0.478,0.311,0.762c0.084,0.284,0.127,0.575,0.127,0.873c0,0.666-0.146,1.287-0.438,1.862
		c-0.294,0.575-0.681,1.058-1.163,1.444c-0.481,0.387-1.034,0.689-1.658,0.912c-0.626,0.222-1.27,0.332-1.933,0.332
		c-0.387,0-0.801-0.029-1.245-0.086c-0.441-0.056-0.812-0.115-1.106-0.175c-0.295-0.062-0.669-0.144-1.118-0.248
		c-0.449-0.103-0.765-0.172-0.942-0.208c-0.128-0.649-0.246-1.401-0.352-2.261C208.335,58.264,208.282,57.734,208.282,57.533z"></path>
	<path fill="#1A31A9" d="M221.793,53.871c0-0.656,0.07-1.301,0.208-1.936c0.139-0.635,0.341-1.234,0.604-1.793
		c0.264-0.561,0.581-1.091,0.952-1.59c0.37-0.499,0.797-0.948,1.277-1.344c0.482-0.395,0.998-0.736,1.552-1.021
		c0.552-0.285,1.15-0.503,1.795-0.653c0.647-0.148,1.315-0.224,2.006-0.224c1.897,0,3.647,0.166,5.252,0.499
		c0.384,2.285,0.577,3.512,0.577,3.684c0.008,0.036-0.007,0.074-0.043,0.112c-0.035,0.041-0.08,0.074-0.134,0.103
		c-0.052,0.028-0.114,0.053-0.181,0.074c-0.068,0.021-0.131,0.033-0.188,0.033c-0.128,0-0.229-0.026-0.3-0.076
		c-0.028-0.129-0.053-0.239-0.074-0.332s-0.064-0.238-0.129-0.435c-0.064-0.198-0.134-0.372-0.209-0.525
		c-0.075-0.155-0.18-0.336-0.314-0.542c-0.136-0.207-0.286-0.391-0.45-0.549c-0.164-0.157-0.368-0.317-0.613-0.482
		c-0.246-0.165-0.515-0.301-0.803-0.407c-0.289-0.107-0.628-0.195-1.017-0.264c-0.39-0.068-0.807-0.102-1.256-0.102
		c-0.714,0-1.393,0.14-2.039,0.418c-0.645,0.278-1.205,0.658-1.684,1.133c-0.478,0.476-0.895,1.022-1.251,1.636
		c-0.357,0.616-0.627,1.272-0.809,1.97c-0.181,0.699-0.271,1.394-0.271,2.089c0,0.787,0.083,1.559,0.25,2.312
		c0.167,0.755,0.429,1.469,0.781,2.142c0.354,0.673,0.779,1.261,1.279,1.764c0.499,0.507,1.104,0.907,1.816,1.204
		c0.714,0.296,1.487,0.443,2.322,0.443c1.297,0,2.388-0.396,3.271-1.191c0.749-0.671,1.256-1.633,1.52-2.886
		c0.043-0.007,0.084-0.012,0.127-0.012c0.236,0,0.456,0.069,0.664,0.205c0,0.32-0.105,0.96-0.315,1.922
		c-0.21,0.964-0.394,1.511-0.551,1.647c-1.319,0.737-3.099,1.107-5.337,1.107c-0.963,0-1.878-0.141-2.743-0.423
		c-0.866-0.281-1.633-0.676-2.3-1.179c-0.666-0.507-1.246-1.097-1.738-1.77c-0.491-0.673-0.866-1.418-1.122-2.234
		C221.92,55.583,221.793,54.74,221.793,53.871z"></path>
	<path fill="#1A31A9" d="M239.529,61.138c0.258,0,0.6-0.038,1.026-0.111c0.429-0.074,0.657-0.17,0.686-0.284
		c0.086-0.271,0.129-0.884,0.129-1.839V48.455c0-0.955-0.043-1.566-0.129-1.829c-0.028-0.122-0.257-0.22-0.686-0.295
		c-0.427-0.074-0.769-0.112-1.026-0.112c-0.058-0.063-0.086-0.196-0.086-0.396c0-0.014,0-0.024,0-0.032
		c0-0.178,0.028-0.3,0.086-0.364c0.172,0.008,0.479,0.024,0.927,0.05c0.443,0.024,0.817,0.044,1.117,0.058
		c0.298,0.015,0.594,0.021,0.888,0.021c0.227,0,0.472-0.006,0.731-0.017c0.261-0.011,0.491-0.021,0.69-0.032
		c0.199-0.009,0.449-0.023,0.748-0.041c0.3-0.019,0.547-0.031,0.737-0.039c0.058,0.064,0.084,0.197,0.082,0.396
		c-0.005,0.199-0.031,0.332-0.082,0.396c-0.255,0-0.598,0.038-1.026,0.113c-0.427,0.075-0.656,0.174-0.684,0.296
		c-0.085,0.266-0.128,0.879-0.128,1.841v4.369c0,0.015,0.003,0.028,0.01,0.043s0.015,0.021,0.021,0.021l0.021,0.012
		c2.432,0.05,3.729,0.074,3.894,0.074c0.298,0,1.564-0.024,3.796-0.074c0.028-0.028,0.043-0.062,0.043-0.098v-4.348
		c0-0.962-0.038-1.575-0.117-1.841c-0.036-0.122-0.268-0.221-0.694-0.296c-0.429-0.075-0.768-0.113-1.018-0.113
		c-0.057-0.063-0.087-0.196-0.091-0.396c-0.003-0.199,0.026-0.332,0.091-0.396c0.165,0.008,0.47,0.024,0.914,0.05
		c0.447,0.024,0.82,0.044,1.124,0.058c0.303,0.015,0.598,0.021,0.882,0.021c0.229,0,0.475-0.006,0.737-0.017
		c0.266-0.011,0.494-0.021,0.69-0.032c0.195-0.009,0.446-0.023,0.749-0.041c0.304-0.019,0.547-0.031,0.733-0.039
		c0.056,0.058,0.084,0.18,0.084,0.364c0,0.015,0,0.025,0,0.032c0,0.199-0.028,0.332-0.084,0.396c-0.251,0-0.591,0.038-1.022,0.112
		c-0.432,0.075-0.661,0.173-0.689,0.295c-0.086,0.263-0.129,0.874-0.129,1.829v10.448c0,0.955,0.043,1.568,0.129,1.839
		c0.028,0.114,0.258,0.21,0.689,0.284c0.432,0.073,0.771,0.111,1.022,0.111c0.056,0.064,0.084,0.196,0.084,0.396
		c0,0.015,0,0.024,0,0.031c0,0.179-0.028,0.301-0.084,0.365c-0.18-0.007-0.486-0.023-0.921-0.05
		c-0.436-0.024-0.802-0.043-1.102-0.058s-0.594-0.021-0.882-0.021c-0.289,0-0.585,0.007-0.888,0.021
		c-0.304,0.015-0.677,0.033-1.124,0.058c-0.444,0.026-0.749,0.043-0.914,0.05c-0.064-0.064-0.094-0.198-0.091-0.396
		c0.004-0.2,0.034-0.332,0.091-0.396c0.129,0,0.314-0.014,0.557-0.043c0.242-0.028,0.489-0.073,0.743-0.138
		c0.253-0.064,0.391-0.137,0.412-0.215c0.079-0.271,0.117-0.884,0.117-1.839v-4.91c0-0.021-0.003-0.038-0.01-0.053
		c-0.007-0.014-0.015-0.023-0.021-0.031l-0.012-0.021c-0.199,0-0.76-0.017-1.679-0.05c-0.92-0.031-1.625-0.048-2.117-0.048
		c-2.418,0-3.727,0.051-3.925,0.15l-0.021,0.053v4.91c0,0.955,0.043,1.568,0.128,1.839c0.027,0.114,0.257,0.21,0.684,0.284
		c0.429,0.073,0.771,0.111,1.026,0.111c0.051,0.064,0.077,0.196,0.082,0.396c0.002,0.198-0.024,0.332-0.082,0.396
		c-0.178-0.007-0.484-0.023-0.919-0.05c-0.435-0.024-0.802-0.043-1.102-0.058s-0.596-0.021-0.887-0.021
		c-0.294,0-0.59,0.007-0.888,0.021c-0.3,0.015-0.674,0.033-1.117,0.058c-0.447,0.026-0.755,0.043-0.927,0.05
		c-0.058-0.058-0.086-0.179-0.086-0.365C239.443,61.353,239.471,61.21,239.529,61.138z"></path>
	<path fill="#1A31A9" d="M258.549,53.678c0-1.129,0.216-2.21,0.647-3.246s1.008-1.929,1.729-2.679
		c0.72-0.747,1.576-1.342,2.569-1.782c0.99-0.44,2.021-0.66,3.091-0.66c0.621,0,1.228,0.066,1.823,0.201s1.158,0.334,1.693,0.597
		s1.035,0.577,1.503,0.942c0.466,0.365,0.886,0.788,1.261,1.268c0.374,0.478,0.696,0.996,0.967,1.55
		c0.271,0.554,0.479,1.155,0.625,1.805s0.22,1.317,0.22,2.005c0,1.139-0.22,2.232-0.656,3.278c-0.439,1.045-1.022,1.942-1.748,2.69
		c-0.728,0.749-1.588,1.344-2.581,1.788c-0.995,0.443-2.029,0.666-3.106,0.666c-1.076,0-2.107-0.208-3.091-0.628
		c-0.986-0.418-1.842-0.993-2.569-1.724s-1.306-1.624-1.734-2.681C258.763,56.013,258.549,54.881,258.549,53.678z M261.009,53.134
		c0,0.775,0.083,1.549,0.251,2.315c0.167,0.769,0.417,1.499,0.753,2.194c0.335,0.696,0.736,1.311,1.202,1.84
		c0.467,0.533,1.026,0.955,1.678,1.271c0.651,0.312,1.348,0.47,2.089,0.47c0.719,0,1.376-0.138,1.972-0.412
		c0.595-0.275,1.089-0.643,1.485-1.108c0.394-0.463,0.729-1.002,1.004-1.616c0.274-0.613,0.473-1.248,0.592-1.909
		c0.122-0.659,0.182-1.337,0.182-2.027c0-0.778-0.084-1.549-0.251-2.312c-0.167-0.765-0.42-1.49-0.758-2.178
		c-0.339-0.689-0.742-1.296-1.213-1.826c-0.471-0.527-1.031-0.947-1.683-1.262c-0.652-0.314-1.35-0.471-2.089-0.471
		c-0.719,0-1.375,0.139-1.966,0.418c-0.591,0.278-1.085,0.646-1.479,1.103c-0.396,0.455-0.729,0.99-1,1.604
		c-0.27,0.614-0.466,1.249-0.587,1.9C261.069,51.777,261.009,52.448,261.009,53.134z"></path>
	<path fill="#1A31A9" d="M278.2,53.678c0-1.129,0.216-2.21,0.648-3.246c0.431-1.036,1.007-1.929,1.728-2.679
		c0.722-0.747,1.577-1.342,2.569-1.782c0.991-0.44,2.021-0.66,3.093-0.66c0.619,0,1.227,0.066,1.822,0.201
		c0.595,0.135,1.159,0.334,1.693,0.597c0.535,0.263,1.035,0.577,1.502,0.942s0.887,0.788,1.262,1.268
		c0.373,0.478,0.695,0.996,0.967,1.55c0.271,0.554,0.479,1.155,0.625,1.805c0.146,0.649,0.219,1.317,0.219,2.005
		c0,1.139-0.219,2.232-0.656,3.278c-0.439,1.045-1.022,1.942-1.748,2.69c-0.727,0.749-1.587,1.344-2.581,1.788
		c-0.995,0.443-2.029,0.666-3.104,0.666c-1.078,0-2.108-0.208-3.093-0.628c-0.985-0.418-1.841-0.993-2.569-1.724
		c-0.728-0.73-1.306-1.624-1.734-2.681C278.415,56.013,278.2,54.881,278.2,53.678z M280.66,53.134c0,0.775,0.083,1.549,0.252,2.315
		c0.167,0.769,0.418,1.499,0.753,2.194c0.334,0.696,0.735,1.311,1.202,1.84c0.467,0.533,1.025,0.955,1.677,1.271
		c0.651,0.312,1.348,0.47,2.089,0.47c0.72,0,1.376-0.138,1.972-0.412c0.595-0.275,1.09-0.643,1.485-1.108
		c0.395-0.463,0.73-1.002,1.004-1.616c0.274-0.613,0.473-1.248,0.593-1.909c0.122-0.659,0.182-1.337,0.182-2.027
		c0-0.778-0.084-1.549-0.251-2.312c-0.167-0.765-0.42-1.49-0.758-2.178c-0.339-0.689-0.743-1.296-1.213-1.826
		c-0.47-0.527-1.031-0.947-1.683-1.262s-1.349-0.471-2.089-0.471c-0.72,0-1.375,0.139-1.967,0.418
		c-0.591,0.278-1.084,0.646-1.479,1.103c-0.395,0.455-0.728,0.99-0.999,1.604c-0.271,0.614-0.467,1.249-0.588,1.9
		S280.66,52.448,280.66,53.134z"></path>
	<path fill="#1A31A9" d="M297.551,61.212c0.257,0,0.6-0.035,1.026-0.112c0.428-0.073,0.657-0.169,0.685-0.281
		c0.086-0.272,0.129-0.886,0.129-1.841v-10.6c0-0.954-0.043-1.563-0.129-1.827c-0.027-0.121-0.257-0.22-0.685-0.294
		c-0.427-0.075-0.77-0.112-1.026-0.112c-0.057-0.064-0.086-0.183-0.086-0.354c0-0.007,0-0.018,0-0.032
		c0-0.156,0.029-0.268,0.086-0.332c0.171,0.008,0.48,0.024,0.926,0.05c0.444,0.024,0.817,0.044,1.117,0.058
		c0.299,0.015,0.595,0.021,0.888,0.021c0.228,0,0.473-0.006,0.732-0.017c0.261-0.011,0.49-0.021,0.69-0.032
		c0.199-0.009,0.448-0.023,0.748-0.041c0.3-0.019,0.546-0.031,0.738-0.039c0.057,0.064,0.083,0.185,0.079,0.358
		c-0.003,0.176-0.029,0.295-0.079,0.359c-0.257,0-0.6,0.037-1.027,0.112c-0.428,0.074-0.656,0.172-0.685,0.294
		c-0.085,0.262-0.128,0.87-0.128,1.825v10.583c0,0.164,0,0.31,0,0.438s0.005,0.304,0.016,0.528c0.011,0.224,0.027,0.41,0.049,0.556
		s0.049,0.234,0.085,0.261c0.15,0.114,0.334,0.184,0.552,0.21c0.217,0.023,0.621,0.033,1.214,0.026h1.412
		c0.519,0,1.053-0.056,1.598-0.165c0.546-0.112,0.979-0.277,1.3-0.496c0.677-0.456,1.197-1.29,1.562-2.5
		c0.028-0.101,0.146-0.15,0.354-0.15c0.077,0,0.161,0.007,0.25,0.021c0.09,0.015,0.166,0.033,0.23,0.06
		c0.064,0.024,0.11,0.048,0.139,0.069c-0.079,0.213-0.203,0.557-0.374,1.029c-0.172,0.475-0.31,0.856-0.417,1.148
		c-0.106,0.293-0.217,0.627-0.326,1.007c-0.111,0.38-0.184,0.697-0.22,0.95c-0.855,0-2.192-0.017-4.011-0.05
		c-1.817-0.031-3.304-0.048-4.459-0.048c-0.4,0-0.914,0.012-1.546,0.038c-0.631,0.023-1.1,0.038-1.406,0.038
		c-0.057-0.058-0.086-0.17-0.086-0.332C297.465,61.413,297.495,61.284,297.551,61.212z"></path>
</g>
</svg>
